<svg xmlns="http://www.w3.org/2000/svg" width="100" height="100">
  <line x1="91" y1="21" x2="99" y2="21" stroke="black" stroke-width="1"/>

<line x1="91" y1="29" x2="91" y2="30" stroke="black" stroke-width="1"/>
<line x1="99" y1="29" x2="99" y2="30" stroke="black" stroke-width="1"/>

<line x1="90" y1="21" x2="91" y2="21" stroke="black" stroke-width="1"/>
<line x1="90" y1="29" x2="91" y2="29" stroke="black" stroke-width="1"/>

<line x1="99" y1="21" x2="99" y2="29" stroke="black" stroke-width="1"/>

<line x1="91" y1="30" x2="91" y2="31" stroke="black" stroke-width="1"/>
<line x1="99" y1="30" x2="99" y2="31" stroke="black" stroke-width="1"/>

<line x1="91" y1="39" x2="91" y2="40" stroke="black" stroke-width="1"/>
<line x1="99" y1="39" x2="99" y2="40" stroke="black" stroke-width="1"/>

<line x1="91" y1="31" x2="91" y2="39" stroke="black" stroke-width="1"/>

<line x1="99" y1="31" x2="99" y2="39" stroke="black" stroke-width="1"/>

<line x1="91" y1="90" x2="91" y2="91" stroke="black" stroke-width="1"/>
<line x1="99" y1="90" x2="99" y2="91" stroke="black" stroke-width="1"/>

<line x1="91" y1="99" x2="99" y2="99" stroke="black" stroke-width="1"/>

<line x1="91" y1="91" x2="91" y2="99" stroke="black" stroke-width="1"/>

<line x1="99" y1="91" x2="99" y2="99" stroke="black" stroke-width="1"/>

<line x1="31" y1="11" x2="39" y2="11" stroke="black" stroke-width="1"/>

<line x1="31" y1="19" x2="39" y2="19" stroke="black" stroke-width="1"/>

<line x1="30" y1="11" x2="31" y2="11" stroke="black" stroke-width="1"/>
<line x1="30" y1="19" x2="31" y2="19" stroke="black" stroke-width="1"/>

<line x1="39" y1="11" x2="40" y2="11" stroke="black" stroke-width="1"/>
<line x1="39" y1="19" x2="40" y2="19" stroke="black" stroke-width="1"/>

<line x1="41" y1="50" x2="41" y2="51" stroke="black" stroke-width="1"/>
<line x1="49" y1="50" x2="49" y2="51" stroke="black" stroke-width="1"/>

<line x1="41" y1="59" x2="41" y2="60" stroke="black" stroke-width="1"/>
<line x1="49" y1="59" x2="49" y2="60" stroke="black" stroke-width="1"/>

<line x1="41" y1="51" x2="41" y2="59" stroke="black" stroke-width="1"/>

<line x1="49" y1="51" x2="49" y2="59" stroke="black" stroke-width="1"/>

<line x1="31" y1="60" x2="31" y2="61" stroke="black" stroke-width="1"/>
<line x1="39" y1="60" x2="39" y2="61" stroke="black" stroke-width="1"/>

<line x1="31" y1="69" x2="31" y2="70" stroke="black" stroke-width="1"/>
<line x1="39" y1="69" x2="39" y2="70" stroke="black" stroke-width="1"/>

<line x1="31" y1="61" x2="31" y2="69" stroke="black" stroke-width="1"/>

<line x1="39" y1="61" x2="39" y2="69" stroke="black" stroke-width="1"/>

<line x1="81" y1="31" x2="89" y2="31" stroke="black" stroke-width="1"/>

<line x1="81" y1="39" x2="81" y2="40" stroke="black" stroke-width="1"/>
<line x1="89" y1="39" x2="89" y2="40" stroke="black" stroke-width="1"/>

<line x1="80" y1="31" x2="81" y2="31" stroke="black" stroke-width="1"/>
<line x1="80" y1="39" x2="81" y2="39" stroke="black" stroke-width="1"/>

<line x1="89" y1="31" x2="89" y2="39" stroke="black" stroke-width="1"/>

<line x1="71" y1="61" x2="79" y2="61" stroke="black" stroke-width="1"/>

<line x1="71" y1="69" x2="71" y2="70" stroke="black" stroke-width="1"/>
<line x1="79" y1="69" x2="79" y2="70" stroke="black" stroke-width="1"/>

<line x1="70" y1="61" x2="71" y2="61" stroke="black" stroke-width="1"/>
<line x1="70" y1="69" x2="71" y2="69" stroke="black" stroke-width="1"/>

<line x1="79" y1="61" x2="80" y2="61" stroke="black" stroke-width="1"/>
<line x1="79" y1="69" x2="80" y2="69" stroke="black" stroke-width="1"/>

<line x1="61" y1="1" x2="69" y2="1" stroke="black" stroke-width="1"/>

<line x1="61" y1="9" x2="69" y2="9" stroke="black" stroke-width="1"/>

<line x1="61" y1="1" x2="61" y2="9" stroke="black" stroke-width="1"/>

<line x1="69" y1="1" x2="70" y2="1" stroke="black" stroke-width="1"/>
<line x1="69" y1="9" x2="70" y2="9" stroke="black" stroke-width="1"/>

<line x1="41" y1="71" x2="49" y2="71" stroke="black" stroke-width="1"/>

<line x1="41" y1="79" x2="41" y2="80" stroke="black" stroke-width="1"/>
<line x1="49" y1="79" x2="49" y2="80" stroke="black" stroke-width="1"/>

<line x1="41" y1="71" x2="41" y2="79" stroke="black" stroke-width="1"/>

<line x1="49" y1="71" x2="50" y2="71" stroke="black" stroke-width="1"/>
<line x1="49" y1="79" x2="50" y2="79" stroke="black" stroke-width="1"/>

<line x1="41" y1="40" x2="41" y2="41" stroke="black" stroke-width="1"/>
<line x1="49" y1="40" x2="49" y2="41" stroke="black" stroke-width="1"/>

<line x1="41" y1="49" x2="41" y2="50" stroke="black" stroke-width="1"/>
<line x1="49" y1="49" x2="49" y2="50" stroke="black" stroke-width="1"/>

<line x1="41" y1="41" x2="41" y2="49" stroke="black" stroke-width="1"/>

<line x1="49" y1="41" x2="50" y2="41" stroke="black" stroke-width="1"/>
<line x1="49" y1="49" x2="50" y2="49" stroke="black" stroke-width="1"/>

<line x1="21" y1="1" x2="29" y2="1" stroke="black" stroke-width="1"/>

<line x1="21" y1="9" x2="21" y2="10" stroke="black" stroke-width="1"/>
<line x1="29" y1="9" x2="29" y2="10" stroke="black" stroke-width="1"/>

<line x1="21" y1="1" x2="21" y2="9" stroke="black" stroke-width="1"/>

<line x1="29" y1="1" x2="29" y2="9" stroke="black" stroke-width="1"/>

<line x1="91" y1="60" x2="91" y2="61" stroke="black" stroke-width="1"/>
<line x1="99" y1="60" x2="99" y2="61" stroke="black" stroke-width="1"/>

<line x1="91" y1="69" x2="91" y2="70" stroke="black" stroke-width="1"/>
<line x1="99" y1="69" x2="99" y2="70" stroke="black" stroke-width="1"/>

<line x1="91" y1="61" x2="91" y2="69" stroke="black" stroke-width="1"/>

<line x1="99" y1="61" x2="99" y2="69" stroke="black" stroke-width="1"/>

<line x1="71" y1="51" x2="79" y2="51" stroke="black" stroke-width="1"/>

<line x1="71" y1="59" x2="79" y2="59" stroke="black" stroke-width="1"/>

<line x1="70" y1="51" x2="71" y2="51" stroke="black" stroke-width="1"/>
<line x1="70" y1="59" x2="71" y2="59" stroke="black" stroke-width="1"/>

<line x1="79" y1="51" x2="79" y2="59" stroke="black" stroke-width="1"/>

<line x1="21" y1="20" x2="21" y2="21" stroke="black" stroke-width="1"/>
<line x1="29" y1="20" x2="29" y2="21" stroke="black" stroke-width="1"/>

<line x1="21" y1="29" x2="29" y2="29" stroke="black" stroke-width="1"/>

<line x1="21" y1="21" x2="21" y2="29" stroke="black" stroke-width="1"/>

<line x1="29" y1="21" x2="30" y2="21" stroke="black" stroke-width="1"/>
<line x1="29" y1="29" x2="30" y2="29" stroke="black" stroke-width="1"/>

<line x1="51" y1="20" x2="51" y2="21" stroke="black" stroke-width="1"/>
<line x1="59" y1="20" x2="59" y2="21" stroke="black" stroke-width="1"/>

<line x1="51" y1="29" x2="59" y2="29" stroke="black" stroke-width="1"/>

<line x1="51" y1="21" x2="51" y2="29" stroke="black" stroke-width="1"/>

<line x1="59" y1="21" x2="59" y2="29" stroke="black" stroke-width="1"/>

<line x1="11" y1="51" x2="19" y2="51" stroke="black" stroke-width="1"/>

<line x1="11" y1="59" x2="11" y2="60" stroke="black" stroke-width="1"/>
<line x1="19" y1="59" x2="19" y2="60" stroke="black" stroke-width="1"/>

<line x1="11" y1="51" x2="11" y2="59" stroke="black" stroke-width="1"/>

<line x1="19" y1="51" x2="20" y2="51" stroke="black" stroke-width="1"/>
<line x1="19" y1="59" x2="20" y2="59" stroke="black" stroke-width="1"/>

<line x1="71" y1="91" x2="79" y2="91" stroke="black" stroke-width="1"/>

<line x1="71" y1="99" x2="79" y2="99" stroke="black" stroke-width="1"/>

<line x1="71" y1="91" x2="71" y2="99" stroke="black" stroke-width="1"/>

<line x1="79" y1="91" x2="80" y2="91" stroke="black" stroke-width="1"/>
<line x1="79" y1="99" x2="80" y2="99" stroke="black" stroke-width="1"/>

<line x1="51" y1="10" x2="51" y2="11" stroke="black" stroke-width="1"/>
<line x1="59" y1="10" x2="59" y2="11" stroke="black" stroke-width="1"/>

<line x1="51" y1="19" x2="51" y2="20" stroke="black" stroke-width="1"/>
<line x1="59" y1="19" x2="59" y2="20" stroke="black" stroke-width="1"/>

<line x1="50" y1="11" x2="51" y2="11" stroke="black" stroke-width="1"/>
<line x1="50" y1="19" x2="51" y2="19" stroke="black" stroke-width="1"/>

<line x1="59" y1="11" x2="60" y2="11" stroke="black" stroke-width="1"/>
<line x1="59" y1="19" x2="60" y2="19" stroke="black" stroke-width="1"/>

<line x1="61" y1="21" x2="69" y2="21" stroke="black" stroke-width="1"/>

<line x1="61" y1="29" x2="61" y2="30" stroke="black" stroke-width="1"/>
<line x1="69" y1="29" x2="69" y2="30" stroke="black" stroke-width="1"/>

<line x1="61" y1="21" x2="61" y2="29" stroke="black" stroke-width="1"/>

<line x1="69" y1="21" x2="70" y2="21" stroke="black" stroke-width="1"/>
<line x1="69" y1="29" x2="70" y2="29" stroke="black" stroke-width="1"/>

<line x1="1" y1="10" x2="1" y2="11" stroke="black" stroke-width="1"/>
<line x1="9" y1="10" x2="9" y2="11" stroke="black" stroke-width="1"/>

<line x1="1" y1="19" x2="1" y2="20" stroke="black" stroke-width="1"/>
<line x1="9" y1="19" x2="9" y2="20" stroke="black" stroke-width="1"/>

<line x1="1" y1="11" x2="1" y2="19" stroke="black" stroke-width="1"/>

<line x1="9" y1="11" x2="10" y2="11" stroke="black" stroke-width="1"/>
<line x1="9" y1="19" x2="10" y2="19" stroke="black" stroke-width="1"/>

<line x1="51" y1="31" x2="59" y2="31" stroke="black" stroke-width="1"/>

<line x1="51" y1="39" x2="51" y2="40" stroke="black" stroke-width="1"/>
<line x1="59" y1="39" x2="59" y2="40" stroke="black" stroke-width="1"/>

<line x1="51" y1="31" x2="51" y2="39" stroke="black" stroke-width="1"/>

<line x1="59" y1="31" x2="60" y2="31" stroke="black" stroke-width="1"/>
<line x1="59" y1="39" x2="60" y2="39" stroke="black" stroke-width="1"/>

<line x1="41" y1="60" x2="41" y2="61" stroke="black" stroke-width="1"/>
<line x1="49" y1="60" x2="49" y2="61" stroke="black" stroke-width="1"/>

<line x1="41" y1="69" x2="49" y2="69" stroke="black" stroke-width="1"/>

<line x1="41" y1="61" x2="41" y2="69" stroke="black" stroke-width="1"/>

<line x1="49" y1="61" x2="49" y2="69" stroke="black" stroke-width="1"/>

<line x1="21" y1="90" x2="21" y2="91" stroke="black" stroke-width="1"/>
<line x1="29" y1="90" x2="29" y2="91" stroke="black" stroke-width="1"/>

<line x1="21" y1="99" x2="29" y2="99" stroke="black" stroke-width="1"/>

<line x1="21" y1="91" x2="21" y2="99" stroke="black" stroke-width="1"/>

<line x1="29" y1="91" x2="30" y2="91" stroke="black" stroke-width="1"/>
<line x1="29" y1="99" x2="30" y2="99" stroke="black" stroke-width="1"/>

<line x1="91" y1="11" x2="99" y2="11" stroke="black" stroke-width="1"/>

<line x1="91" y1="19" x2="99" y2="19" stroke="black" stroke-width="1"/>

<line x1="90" y1="11" x2="91" y2="11" stroke="black" stroke-width="1"/>
<line x1="90" y1="19" x2="91" y2="19" stroke="black" stroke-width="1"/>

<line x1="99" y1="11" x2="99" y2="19" stroke="black" stroke-width="1"/>

<line x1="1" y1="81" x2="9" y2="81" stroke="black" stroke-width="1"/>

<line x1="1" y1="89" x2="1" y2="90" stroke="black" stroke-width="1"/>
<line x1="9" y1="89" x2="9" y2="90" stroke="black" stroke-width="1"/>

<line x1="1" y1="81" x2="1" y2="89" stroke="black" stroke-width="1"/>

<line x1="9" y1="81" x2="10" y2="81" stroke="black" stroke-width="1"/>
<line x1="9" y1="89" x2="10" y2="89" stroke="black" stroke-width="1"/>

<line x1="51" y1="51" x2="59" y2="51" stroke="black" stroke-width="1"/>

<line x1="51" y1="59" x2="51" y2="60" stroke="black" stroke-width="1"/>
<line x1="59" y1="59" x2="59" y2="60" stroke="black" stroke-width="1"/>

<line x1="51" y1="51" x2="51" y2="59" stroke="black" stroke-width="1"/>

<line x1="59" y1="51" x2="59" y2="59" stroke="black" stroke-width="1"/>

<line x1="11" y1="40" x2="11" y2="41" stroke="black" stroke-width="1"/>
<line x1="19" y1="40" x2="19" y2="41" stroke="black" stroke-width="1"/>

<line x1="11" y1="49" x2="19" y2="49" stroke="black" stroke-width="1"/>

<line x1="11" y1="41" x2="11" y2="49" stroke="black" stroke-width="1"/>

<line x1="19" y1="41" x2="19" y2="49" stroke="black" stroke-width="1"/>

<line x1="61" y1="11" x2="69" y2="11" stroke="black" stroke-width="1"/>

<line x1="61" y1="19" x2="69" y2="19" stroke="black" stroke-width="1"/>

<line x1="60" y1="11" x2="61" y2="11" stroke="black" stroke-width="1"/>
<line x1="60" y1="19" x2="61" y2="19" stroke="black" stroke-width="1"/>

<line x1="69" y1="11" x2="70" y2="11" stroke="black" stroke-width="1"/>
<line x1="69" y1="19" x2="70" y2="19" stroke="black" stroke-width="1"/>

<line x1="31" y1="51" x2="39" y2="51" stroke="black" stroke-width="1"/>

<line x1="31" y1="59" x2="31" y2="60" stroke="black" stroke-width="1"/>
<line x1="39" y1="59" x2="39" y2="60" stroke="black" stroke-width="1"/>

<line x1="31" y1="51" x2="31" y2="59" stroke="black" stroke-width="1"/>

<line x1="39" y1="51" x2="39" y2="59" stroke="black" stroke-width="1"/>

<line x1="11" y1="70" x2="11" y2="71" stroke="black" stroke-width="1"/>
<line x1="19" y1="70" x2="19" y2="71" stroke="black" stroke-width="1"/>

<line x1="11" y1="79" x2="11" y2="80" stroke="black" stroke-width="1"/>
<line x1="19" y1="79" x2="19" y2="80" stroke="black" stroke-width="1"/>

<line x1="10" y1="71" x2="11" y2="71" stroke="black" stroke-width="1"/>
<line x1="10" y1="79" x2="11" y2="79" stroke="black" stroke-width="1"/>

<line x1="19" y1="71" x2="19" y2="79" stroke="black" stroke-width="1"/>

<line x1="1" y1="60" x2="1" y2="61" stroke="black" stroke-width="1"/>
<line x1="9" y1="60" x2="9" y2="61" stroke="black" stroke-width="1"/>

<line x1="1" y1="69" x2="9" y2="69" stroke="black" stroke-width="1"/>

<line x1="1" y1="61" x2="1" y2="69" stroke="black" stroke-width="1"/>

<line x1="9" y1="61" x2="10" y2="61" stroke="black" stroke-width="1"/>
<line x1="9" y1="69" x2="10" y2="69" stroke="black" stroke-width="1"/>

<line x1="71" y1="70" x2="71" y2="71" stroke="black" stroke-width="1"/>
<line x1="79" y1="70" x2="79" y2="71" stroke="black" stroke-width="1"/>

<line x1="71" y1="79" x2="71" y2="80" stroke="black" stroke-width="1"/>
<line x1="79" y1="79" x2="79" y2="80" stroke="black" stroke-width="1"/>

<line x1="70" y1="71" x2="71" y2="71" stroke="black" stroke-width="1"/>
<line x1="70" y1="79" x2="71" y2="79" stroke="black" stroke-width="1"/>

<line x1="79" y1="71" x2="79" y2="79" stroke="black" stroke-width="1"/>

<line x1="11" y1="90" x2="11" y2="91" stroke="black" stroke-width="1"/>
<line x1="19" y1="90" x2="19" y2="91" stroke="black" stroke-width="1"/>

<line x1="11" y1="99" x2="19" y2="99" stroke="black" stroke-width="1"/>

<line x1="11" y1="91" x2="11" y2="99" stroke="black" stroke-width="1"/>

<line x1="19" y1="91" x2="19" y2="99" stroke="black" stroke-width="1"/>

<line x1="91" y1="40" x2="91" y2="41" stroke="black" stroke-width="1"/>
<line x1="99" y1="40" x2="99" y2="41" stroke="black" stroke-width="1"/>

<line x1="91" y1="49" x2="99" y2="49" stroke="black" stroke-width="1"/>

<line x1="91" y1="41" x2="91" y2="49" stroke="black" stroke-width="1"/>

<line x1="99" y1="41" x2="99" y2="49" stroke="black" stroke-width="1"/>

<line x1="1" y1="30" x2="1" y2="31" stroke="black" stroke-width="1"/>
<line x1="9" y1="30" x2="9" y2="31" stroke="black" stroke-width="1"/>

<line x1="1" y1="39" x2="9" y2="39" stroke="black" stroke-width="1"/>

<line x1="1" y1="31" x2="1" y2="39" stroke="black" stroke-width="1"/>

<line x1="9" y1="31" x2="9" y2="39" stroke="black" stroke-width="1"/>

<line x1="31" y1="31" x2="39" y2="31" stroke="black" stroke-width="1"/>

<line x1="31" y1="39" x2="31" y2="40" stroke="black" stroke-width="1"/>
<line x1="39" y1="39" x2="39" y2="40" stroke="black" stroke-width="1"/>

<line x1="31" y1="31" x2="31" y2="39" stroke="black" stroke-width="1"/>

<line x1="39" y1="31" x2="39" y2="39" stroke="black" stroke-width="1"/>

<line x1="71" y1="41" x2="79" y2="41" stroke="black" stroke-width="1"/>

<line x1="71" y1="49" x2="79" y2="49" stroke="black" stroke-width="1"/>

<line x1="70" y1="41" x2="71" y2="41" stroke="black" stroke-width="1"/>
<line x1="70" y1="49" x2="71" y2="49" stroke="black" stroke-width="1"/>

<line x1="79" y1="41" x2="79" y2="49" stroke="black" stroke-width="1"/>

<line x1="81" y1="71" x2="89" y2="71" stroke="black" stroke-width="1"/>

<line x1="81" y1="79" x2="81" y2="80" stroke="black" stroke-width="1"/>
<line x1="89" y1="79" x2="89" y2="80" stroke="black" stroke-width="1"/>

<line x1="81" y1="71" x2="81" y2="79" stroke="black" stroke-width="1"/>

<line x1="89" y1="71" x2="89" y2="79" stroke="black" stroke-width="1"/>

<line x1="1" y1="71" x2="9" y2="71" stroke="black" stroke-width="1"/>

<line x1="1" y1="79" x2="9" y2="79" stroke="black" stroke-width="1"/>

<line x1="1" y1="71" x2="1" y2="79" stroke="black" stroke-width="1"/>

<line x1="9" y1="71" x2="10" y2="71" stroke="black" stroke-width="1"/>
<line x1="9" y1="79" x2="10" y2="79" stroke="black" stroke-width="1"/>

<line x1="11" y1="20" x2="11" y2="21" stroke="black" stroke-width="1"/>
<line x1="19" y1="20" x2="19" y2="21" stroke="black" stroke-width="1"/>

<line x1="11" y1="29" x2="11" y2="30" stroke="black" stroke-width="1"/>
<line x1="19" y1="29" x2="19" y2="30" stroke="black" stroke-width="1"/>

<line x1="11" y1="21" x2="11" y2="29" stroke="black" stroke-width="1"/>

<line x1="19" y1="21" x2="19" y2="29" stroke="black" stroke-width="1"/>

<line x1="51" y1="71" x2="59" y2="71" stroke="black" stroke-width="1"/>

<line x1="51" y1="79" x2="59" y2="79" stroke="black" stroke-width="1"/>

<line x1="50" y1="71" x2="51" y2="71" stroke="black" stroke-width="1"/>
<line x1="50" y1="79" x2="51" y2="79" stroke="black" stroke-width="1"/>

<line x1="59" y1="71" x2="60" y2="71" stroke="black" stroke-width="1"/>
<line x1="59" y1="79" x2="60" y2="79" stroke="black" stroke-width="1"/>

<line x1="41" y1="31" x2="49" y2="31" stroke="black" stroke-width="1"/>

<line x1="41" y1="39" x2="41" y2="40" stroke="black" stroke-width="1"/>
<line x1="49" y1="39" x2="49" y2="40" stroke="black" stroke-width="1"/>

<line x1="41" y1="31" x2="41" y2="39" stroke="black" stroke-width="1"/>

<line x1="49" y1="31" x2="49" y2="39" stroke="black" stroke-width="1"/>

<line x1="21" y1="81" x2="29" y2="81" stroke="black" stroke-width="1"/>

<line x1="21" y1="89" x2="21" y2="90" stroke="black" stroke-width="1"/>
<line x1="29" y1="89" x2="29" y2="90" stroke="black" stroke-width="1"/>

<line x1="21" y1="81" x2="21" y2="89" stroke="black" stroke-width="1"/>

<line x1="29" y1="81" x2="30" y2="81" stroke="black" stroke-width="1"/>
<line x1="29" y1="89" x2="30" y2="89" stroke="black" stroke-width="1"/>

<line x1="81" y1="10" x2="81" y2="11" stroke="black" stroke-width="1"/>
<line x1="89" y1="10" x2="89" y2="11" stroke="black" stroke-width="1"/>

<line x1="81" y1="19" x2="89" y2="19" stroke="black" stroke-width="1"/>

<line x1="80" y1="11" x2="81" y2="11" stroke="black" stroke-width="1"/>
<line x1="80" y1="19" x2="81" y2="19" stroke="black" stroke-width="1"/>

<line x1="89" y1="11" x2="90" y2="11" stroke="black" stroke-width="1"/>
<line x1="89" y1="19" x2="90" y2="19" stroke="black" stroke-width="1"/>

<line x1="31" y1="21" x2="39" y2="21" stroke="black" stroke-width="1"/>

<line x1="31" y1="29" x2="39" y2="29" stroke="black" stroke-width="1"/>

<line x1="30" y1="21" x2="31" y2="21" stroke="black" stroke-width="1"/>
<line x1="30" y1="29" x2="31" y2="29" stroke="black" stroke-width="1"/>

<line x1="39" y1="21" x2="39" y2="29" stroke="black" stroke-width="1"/>

<line x1="81" y1="80" x2="81" y2="81" stroke="black" stroke-width="1"/>
<line x1="89" y1="80" x2="89" y2="81" stroke="black" stroke-width="1"/>

<line x1="81" y1="89" x2="81" y2="90" stroke="black" stroke-width="1"/>
<line x1="89" y1="89" x2="89" y2="90" stroke="black" stroke-width="1"/>

<line x1="80" y1="81" x2="81" y2="81" stroke="black" stroke-width="1"/>
<line x1="80" y1="89" x2="81" y2="89" stroke="black" stroke-width="1"/>

<line x1="89" y1="81" x2="89" y2="89" stroke="black" stroke-width="1"/>

<line x1="21" y1="40" x2="21" y2="41" stroke="black" stroke-width="1"/>
<line x1="29" y1="40" x2="29" y2="41" stroke="black" stroke-width="1"/>

<line x1="21" y1="49" x2="21" y2="50" stroke="black" stroke-width="1"/>
<line x1="29" y1="49" x2="29" y2="50" stroke="black" stroke-width="1"/>

<line x1="21" y1="41" x2="21" y2="49" stroke="black" stroke-width="1"/>

<line x1="29" y1="41" x2="30" y2="41" stroke="black" stroke-width="1"/>
<line x1="29" y1="49" x2="30" y2="49" stroke="black" stroke-width="1"/>

<line x1="71" y1="11" x2="79" y2="11" stroke="black" stroke-width="1"/>

<line x1="71" y1="19" x2="71" y2="20" stroke="black" stroke-width="1"/>
<line x1="79" y1="19" x2="79" y2="20" stroke="black" stroke-width="1"/>

<line x1="70" y1="11" x2="71" y2="11" stroke="black" stroke-width="1"/>
<line x1="70" y1="19" x2="71" y2="19" stroke="black" stroke-width="1"/>

<line x1="79" y1="11" x2="80" y2="11" stroke="black" stroke-width="1"/>
<line x1="79" y1="19" x2="80" y2="19" stroke="black" stroke-width="1"/>

<line x1="81" y1="61" x2="89" y2="61" stroke="black" stroke-width="1"/>

<line x1="81" y1="69" x2="89" y2="69" stroke="black" stroke-width="1"/>

<line x1="80" y1="61" x2="81" y2="61" stroke="black" stroke-width="1"/>
<line x1="80" y1="69" x2="81" y2="69" stroke="black" stroke-width="1"/>

<line x1="89" y1="61" x2="89" y2="69" stroke="black" stroke-width="1"/>

<line x1="41" y1="1" x2="49" y2="1" stroke="black" stroke-width="1"/>

<line x1="41" y1="9" x2="41" y2="10" stroke="black" stroke-width="1"/>
<line x1="49" y1="9" x2="49" y2="10" stroke="black" stroke-width="1"/>

<line x1="40" y1="1" x2="41" y2="1" stroke="black" stroke-width="1"/>
<line x1="40" y1="9" x2="41" y2="9" stroke="black" stroke-width="1"/>

<line x1="49" y1="1" x2="49" y2="9" stroke="black" stroke-width="1"/>

<line x1="31" y1="91" x2="39" y2="91" stroke="black" stroke-width="1"/>

<line x1="31" y1="99" x2="39" y2="99" stroke="black" stroke-width="1"/>

<line x1="30" y1="91" x2="31" y2="91" stroke="black" stroke-width="1"/>
<line x1="30" y1="99" x2="31" y2="99" stroke="black" stroke-width="1"/>

<line x1="39" y1="91" x2="39" y2="99" stroke="black" stroke-width="1"/>

<line x1="61" y1="60" x2="61" y2="61" stroke="black" stroke-width="1"/>
<line x1="69" y1="60" x2="69" y2="61" stroke="black" stroke-width="1"/>

<line x1="61" y1="69" x2="69" y2="69" stroke="black" stroke-width="1"/>

<line x1="60" y1="61" x2="61" y2="61" stroke="black" stroke-width="1"/>
<line x1="60" y1="69" x2="61" y2="69" stroke="black" stroke-width="1"/>

<line x1="69" y1="61" x2="70" y2="61" stroke="black" stroke-width="1"/>
<line x1="69" y1="69" x2="70" y2="69" stroke="black" stroke-width="1"/>

<line x1="51" y1="90" x2="51" y2="91" stroke="black" stroke-width="1"/>
<line x1="59" y1="90" x2="59" y2="91" stroke="black" stroke-width="1"/>

<line x1="51" y1="99" x2="59" y2="99" stroke="black" stroke-width="1"/>

<line x1="51" y1="91" x2="51" y2="99" stroke="black" stroke-width="1"/>

<line x1="59" y1="91" x2="59" y2="99" stroke="black" stroke-width="1"/>

<line x1="61" y1="50" x2="61" y2="51" stroke="black" stroke-width="1"/>
<line x1="69" y1="50" x2="69" y2="51" stroke="black" stroke-width="1"/>

<line x1="61" y1="59" x2="61" y2="60" stroke="black" stroke-width="1"/>
<line x1="69" y1="59" x2="69" y2="60" stroke="black" stroke-width="1"/>

<line x1="61" y1="51" x2="61" y2="59" stroke="black" stroke-width="1"/>

<line x1="69" y1="51" x2="70" y2="51" stroke="black" stroke-width="1"/>
<line x1="69" y1="59" x2="70" y2="59" stroke="black" stroke-width="1"/>

<line x1="41" y1="10" x2="41" y2="11" stroke="black" stroke-width="1"/>
<line x1="49" y1="10" x2="49" y2="11" stroke="black" stroke-width="1"/>

<line x1="41" y1="19" x2="41" y2="20" stroke="black" stroke-width="1"/>
<line x1="49" y1="19" x2="49" y2="20" stroke="black" stroke-width="1"/>

<line x1="40" y1="11" x2="41" y2="11" stroke="black" stroke-width="1"/>
<line x1="40" y1="19" x2="41" y2="19" stroke="black" stroke-width="1"/>

<line x1="49" y1="11" x2="50" y2="11" stroke="black" stroke-width="1"/>
<line x1="49" y1="19" x2="50" y2="19" stroke="black" stroke-width="1"/>

<line x1="81" y1="21" x2="89" y2="21" stroke="black" stroke-width="1"/>

<line x1="81" y1="29" x2="89" y2="29" stroke="black" stroke-width="1"/>

<line x1="80" y1="21" x2="81" y2="21" stroke="black" stroke-width="1"/>
<line x1="80" y1="29" x2="81" y2="29" stroke="black" stroke-width="1"/>

<line x1="89" y1="21" x2="90" y2="21" stroke="black" stroke-width="1"/>
<line x1="89" y1="29" x2="90" y2="29" stroke="black" stroke-width="1"/>

<line x1="61" y1="71" x2="69" y2="71" stroke="black" stroke-width="1"/>

<line x1="61" y1="79" x2="61" y2="80" stroke="black" stroke-width="1"/>
<line x1="69" y1="79" x2="69" y2="80" stroke="black" stroke-width="1"/>

<line x1="60" y1="71" x2="61" y2="71" stroke="black" stroke-width="1"/>
<line x1="60" y1="79" x2="61" y2="79" stroke="black" stroke-width="1"/>

<line x1="69" y1="71" x2="70" y2="71" stroke="black" stroke-width="1"/>
<line x1="69" y1="79" x2="70" y2="79" stroke="black" stroke-width="1"/>

<line x1="81" y1="50" x2="81" y2="51" stroke="black" stroke-width="1"/>
<line x1="89" y1="50" x2="89" y2="51" stroke="black" stroke-width="1"/>

<line x1="81" y1="59" x2="89" y2="59" stroke="black" stroke-width="1"/>

<line x1="81" y1="51" x2="81" y2="59" stroke="black" stroke-width="1"/>

<line x1="89" y1="51" x2="90" y2="51" stroke="black" stroke-width="1"/>
<line x1="89" y1="59" x2="90" y2="59" stroke="black" stroke-width="1"/>

<line x1="71" y1="80" x2="71" y2="81" stroke="black" stroke-width="1"/>
<line x1="79" y1="80" x2="79" y2="81" stroke="black" stroke-width="1"/>

<line x1="71" y1="89" x2="79" y2="89" stroke="black" stroke-width="1"/>

<line x1="71" y1="81" x2="71" y2="89" stroke="black" stroke-width="1"/>

<line x1="79" y1="81" x2="80" y2="81" stroke="black" stroke-width="1"/>
<line x1="79" y1="89" x2="80" y2="89" stroke="black" stroke-width="1"/>

<line x1="1" y1="1" x2="9" y2="1" stroke="black" stroke-width="1"/>

<line x1="1" y1="9" x2="1" y2="10" stroke="black" stroke-width="1"/>
<line x1="9" y1="9" x2="9" y2="10" stroke="black" stroke-width="1"/>

<line x1="1" y1="1" x2="1" y2="9" stroke="black" stroke-width="1"/>

<line x1="9" y1="1" x2="9" y2="9" stroke="black" stroke-width="1"/>

<line x1="21" y1="70" x2="21" y2="71" stroke="black" stroke-width="1"/>
<line x1="29" y1="70" x2="29" y2="71" stroke="black" stroke-width="1"/>

<line x1="21" y1="79" x2="29" y2="79" stroke="black" stroke-width="1"/>

<line x1="21" y1="71" x2="21" y2="79" stroke="black" stroke-width="1"/>

<line x1="29" y1="71" x2="30" y2="71" stroke="black" stroke-width="1"/>
<line x1="29" y1="79" x2="30" y2="79" stroke="black" stroke-width="1"/>

<line x1="1" y1="90" x2="1" y2="91" stroke="black" stroke-width="1"/>
<line x1="9" y1="90" x2="9" y2="91" stroke="black" stroke-width="1"/>

<line x1="1" y1="99" x2="9" y2="99" stroke="black" stroke-width="1"/>

<line x1="1" y1="91" x2="1" y2="99" stroke="black" stroke-width="1"/>

<line x1="9" y1="91" x2="9" y2="99" stroke="black" stroke-width="1"/>

<line x1="71" y1="1" x2="79" y2="1" stroke="black" stroke-width="1"/>

<line x1="71" y1="9" x2="79" y2="9" stroke="black" stroke-width="1"/>

<line x1="70" y1="1" x2="71" y2="1" stroke="black" stroke-width="1"/>
<line x1="70" y1="9" x2="71" y2="9" stroke="black" stroke-width="1"/>

<line x1="79" y1="1" x2="80" y2="1" stroke="black" stroke-width="1"/>
<line x1="79" y1="9" x2="80" y2="9" stroke="black" stroke-width="1"/>

<line x1="21" y1="61" x2="29" y2="61" stroke="black" stroke-width="1"/>

<line x1="21" y1="69" x2="21" y2="70" stroke="black" stroke-width="1"/>
<line x1="29" y1="69" x2="29" y2="70" stroke="black" stroke-width="1"/>

<line x1="20" y1="61" x2="21" y2="61" stroke="black" stroke-width="1"/>
<line x1="20" y1="69" x2="21" y2="69" stroke="black" stroke-width="1"/>

<line x1="29" y1="61" x2="29" y2="69" stroke="black" stroke-width="1"/>

<line x1="41" y1="90" x2="41" y2="91" stroke="black" stroke-width="1"/>
<line x1="49" y1="90" x2="49" y2="91" stroke="black" stroke-width="1"/>

<line x1="41" y1="99" x2="49" y2="99" stroke="black" stroke-width="1"/>

<line x1="41" y1="91" x2="41" y2="99" stroke="black" stroke-width="1"/>

<line x1="49" y1="91" x2="49" y2="99" stroke="black" stroke-width="1"/>

<line x1="61" y1="40" x2="61" y2="41" stroke="black" stroke-width="1"/>
<line x1="69" y1="40" x2="69" y2="41" stroke="black" stroke-width="1"/>

<line x1="61" y1="49" x2="61" y2="50" stroke="black" stroke-width="1"/>
<line x1="69" y1="49" x2="69" y2="50" stroke="black" stroke-width="1"/>

<line x1="61" y1="41" x2="61" y2="49" stroke="black" stroke-width="1"/>

<line x1="69" y1="41" x2="70" y2="41" stroke="black" stroke-width="1"/>
<line x1="69" y1="49" x2="70" y2="49" stroke="black" stroke-width="1"/>

<line x1="71" y1="20" x2="71" y2="21" stroke="black" stroke-width="1"/>
<line x1="79" y1="20" x2="79" y2="21" stroke="black" stroke-width="1"/>

<line x1="71" y1="29" x2="79" y2="29" stroke="black" stroke-width="1"/>

<line x1="70" y1="21" x2="71" y2="21" stroke="black" stroke-width="1"/>
<line x1="70" y1="29" x2="71" y2="29" stroke="black" stroke-width="1"/>

<line x1="79" y1="21" x2="80" y2="21" stroke="black" stroke-width="1"/>
<line x1="79" y1="29" x2="80" y2="29" stroke="black" stroke-width="1"/>

<line x1="41" y1="80" x2="41" y2="81" stroke="black" stroke-width="1"/>
<line x1="49" y1="80" x2="49" y2="81" stroke="black" stroke-width="1"/>

<line x1="41" y1="89" x2="41" y2="90" stroke="black" stroke-width="1"/>
<line x1="49" y1="89" x2="49" y2="90" stroke="black" stroke-width="1"/>

<line x1="41" y1="81" x2="41" y2="89" stroke="black" stroke-width="1"/>

<line x1="49" y1="81" x2="50" y2="81" stroke="black" stroke-width="1"/>
<line x1="49" y1="89" x2="50" y2="89" stroke="black" stroke-width="1"/>

<line x1="31" y1="80" x2="31" y2="81" stroke="black" stroke-width="1"/>
<line x1="39" y1="80" x2="39" y2="81" stroke="black" stroke-width="1"/>

<line x1="31" y1="89" x2="39" y2="89" stroke="black" stroke-width="1"/>

<line x1="30" y1="81" x2="31" y2="81" stroke="black" stroke-width="1"/>
<line x1="30" y1="89" x2="31" y2="89" stroke="black" stroke-width="1"/>

<line x1="39" y1="81" x2="39" y2="89" stroke="black" stroke-width="1"/>

<line x1="1" y1="20" x2="1" y2="21" stroke="black" stroke-width="1"/>
<line x1="9" y1="20" x2="9" y2="21" stroke="black" stroke-width="1"/>

<line x1="1" y1="29" x2="1" y2="30" stroke="black" stroke-width="1"/>
<line x1="9" y1="29" x2="9" y2="30" stroke="black" stroke-width="1"/>

<line x1="1" y1="21" x2="1" y2="29" stroke="black" stroke-width="1"/>

<line x1="9" y1="21" x2="9" y2="29" stroke="black" stroke-width="1"/>

<line x1="11" y1="60" x2="11" y2="61" stroke="black" stroke-width="1"/>
<line x1="19" y1="60" x2="19" y2="61" stroke="black" stroke-width="1"/>

<line x1="11" y1="69" x2="11" y2="70" stroke="black" stroke-width="1"/>
<line x1="19" y1="69" x2="19" y2="70" stroke="black" stroke-width="1"/>

<line x1="10" y1="61" x2="11" y2="61" stroke="black" stroke-width="1"/>
<line x1="10" y1="69" x2="11" y2="69" stroke="black" stroke-width="1"/>

<line x1="19" y1="61" x2="20" y2="61" stroke="black" stroke-width="1"/>
<line x1="19" y1="69" x2="20" y2="69" stroke="black" stroke-width="1"/>

<line x1="11" y1="30" x2="11" y2="31" stroke="black" stroke-width="1"/>
<line x1="19" y1="30" x2="19" y2="31" stroke="black" stroke-width="1"/>

<line x1="11" y1="39" x2="11" y2="40" stroke="black" stroke-width="1"/>
<line x1="19" y1="39" x2="19" y2="40" stroke="black" stroke-width="1"/>

<line x1="11" y1="31" x2="11" y2="39" stroke="black" stroke-width="1"/>

<line x1="19" y1="31" x2="20" y2="31" stroke="black" stroke-width="1"/>
<line x1="19" y1="39" x2="20" y2="39" stroke="black" stroke-width="1"/>

<line x1="81" y1="1" x2="89" y2="1" stroke="black" stroke-width="1"/>

<line x1="81" y1="9" x2="81" y2="10" stroke="black" stroke-width="1"/>
<line x1="89" y1="9" x2="89" y2="10" stroke="black" stroke-width="1"/>

<line x1="80" y1="1" x2="81" y2="1" stroke="black" stroke-width="1"/>
<line x1="80" y1="9" x2="81" y2="9" stroke="black" stroke-width="1"/>

<line x1="89" y1="1" x2="90" y2="1" stroke="black" stroke-width="1"/>
<line x1="89" y1="9" x2="90" y2="9" stroke="black" stroke-width="1"/>

<line x1="91" y1="70" x2="91" y2="71" stroke="black" stroke-width="1"/>
<line x1="99" y1="70" x2="99" y2="71" stroke="black" stroke-width="1"/>

<line x1="91" y1="79" x2="91" y2="80" stroke="black" stroke-width="1"/>
<line x1="99" y1="79" x2="99" y2="80" stroke="black" stroke-width="1"/>

<line x1="91" y1="71" x2="91" y2="79" stroke="black" stroke-width="1"/>

<line x1="99" y1="71" x2="99" y2="79" stroke="black" stroke-width="1"/>

<line x1="31" y1="70" x2="31" y2="71" stroke="black" stroke-width="1"/>
<line x1="39" y1="70" x2="39" y2="71" stroke="black" stroke-width="1"/>

<line x1="31" y1="79" x2="31" y2="80" stroke="black" stroke-width="1"/>
<line x1="39" y1="79" x2="39" y2="80" stroke="black" stroke-width="1"/>

<line x1="30" y1="71" x2="31" y2="71" stroke="black" stroke-width="1"/>
<line x1="30" y1="79" x2="31" y2="79" stroke="black" stroke-width="1"/>

<line x1="39" y1="71" x2="39" y2="79" stroke="black" stroke-width="1"/>

<line x1="11" y1="80" x2="11" y2="81" stroke="black" stroke-width="1"/>
<line x1="19" y1="80" x2="19" y2="81" stroke="black" stroke-width="1"/>

<line x1="11" y1="89" x2="11" y2="90" stroke="black" stroke-width="1"/>
<line x1="19" y1="89" x2="19" y2="90" stroke="black" stroke-width="1"/>

<line x1="10" y1="81" x2="11" y2="81" stroke="black" stroke-width="1"/>
<line x1="10" y1="89" x2="11" y2="89" stroke="black" stroke-width="1"/>

<line x1="19" y1="81" x2="19" y2="89" stroke="black" stroke-width="1"/>

<line x1="81" y1="90" x2="81" y2="91" stroke="black" stroke-width="1"/>
<line x1="89" y1="90" x2="89" y2="91" stroke="black" stroke-width="1"/>

<line x1="81" y1="99" x2="89" y2="99" stroke="black" stroke-width="1"/>

<line x1="80" y1="91" x2="81" y2="91" stroke="black" stroke-width="1"/>
<line x1="80" y1="99" x2="81" y2="99" stroke="black" stroke-width="1"/>

<line x1="89" y1="91" x2="89" y2="99" stroke="black" stroke-width="1"/>

<line x1="21" y1="31" x2="29" y2="31" stroke="black" stroke-width="1"/>

<line x1="21" y1="39" x2="21" y2="40" stroke="black" stroke-width="1"/>
<line x1="29" y1="39" x2="29" y2="40" stroke="black" stroke-width="1"/>

<line x1="20" y1="31" x2="21" y2="31" stroke="black" stroke-width="1"/>
<line x1="20" y1="39" x2="21" y2="39" stroke="black" stroke-width="1"/>

<line x1="29" y1="31" x2="29" y2="39" stroke="black" stroke-width="1"/>

<line x1="1" y1="41" x2="9" y2="41" stroke="black" stroke-width="1"/>

<line x1="1" y1="49" x2="1" y2="50" stroke="black" stroke-width="1"/>
<line x1="9" y1="49" x2="9" y2="50" stroke="black" stroke-width="1"/>

<line x1="1" y1="41" x2="1" y2="49" stroke="black" stroke-width="1"/>

<line x1="9" y1="41" x2="9" y2="49" stroke="black" stroke-width="1"/>

<line x1="91" y1="80" x2="91" y2="81" stroke="black" stroke-width="1"/>
<line x1="99" y1="80" x2="99" y2="81" stroke="black" stroke-width="1"/>

<line x1="91" y1="89" x2="91" y2="90" stroke="black" stroke-width="1"/>
<line x1="99" y1="89" x2="99" y2="90" stroke="black" stroke-width="1"/>

<line x1="91" y1="81" x2="91" y2="89" stroke="black" stroke-width="1"/>

<line x1="99" y1="81" x2="99" y2="89" stroke="black" stroke-width="1"/>

<line x1="11" y1="1" x2="19" y2="1" stroke="black" stroke-width="1"/>

<line x1="11" y1="9" x2="11" y2="10" stroke="black" stroke-width="1"/>
<line x1="19" y1="9" x2="19" y2="10" stroke="black" stroke-width="1"/>

<line x1="11" y1="1" x2="11" y2="9" stroke="black" stroke-width="1"/>

<line x1="19" y1="1" x2="19" y2="9" stroke="black" stroke-width="1"/>

<line x1="51" y1="1" x2="59" y2="1" stroke="black" stroke-width="1"/>

<line x1="51" y1="9" x2="51" y2="10" stroke="black" stroke-width="1"/>
<line x1="59" y1="9" x2="59" y2="10" stroke="black" stroke-width="1"/>

<line x1="51" y1="1" x2="51" y2="9" stroke="black" stroke-width="1"/>

<line x1="59" y1="1" x2="59" y2="9" stroke="black" stroke-width="1"/>

<line x1="1" y1="50" x2="1" y2="51" stroke="black" stroke-width="1"/>
<line x1="9" y1="50" x2="9" y2="51" stroke="black" stroke-width="1"/>

<line x1="1" y1="59" x2="1" y2="60" stroke="black" stroke-width="1"/>
<line x1="9" y1="59" x2="9" y2="60" stroke="black" stroke-width="1"/>

<line x1="1" y1="51" x2="1" y2="59" stroke="black" stroke-width="1"/>

<line x1="9" y1="51" x2="9" y2="59" stroke="black" stroke-width="1"/>

<line x1="71" y1="31" x2="79" y2="31" stroke="black" stroke-width="1"/>

<line x1="71" y1="39" x2="79" y2="39" stroke="black" stroke-width="1"/>

<line x1="70" y1="31" x2="71" y2="31" stroke="black" stroke-width="1"/>
<line x1="70" y1="39" x2="71" y2="39" stroke="black" stroke-width="1"/>

<line x1="79" y1="31" x2="80" y2="31" stroke="black" stroke-width="1"/>
<line x1="79" y1="39" x2="80" y2="39" stroke="black" stroke-width="1"/>

<line x1="31" y1="40" x2="31" y2="41" stroke="black" stroke-width="1"/>
<line x1="39" y1="40" x2="39" y2="41" stroke="black" stroke-width="1"/>

<line x1="31" y1="49" x2="39" y2="49" stroke="black" stroke-width="1"/>

<line x1="30" y1="41" x2="31" y2="41" stroke="black" stroke-width="1"/>
<line x1="30" y1="49" x2="31" y2="49" stroke="black" stroke-width="1"/>

<line x1="39" y1="41" x2="39" y2="49" stroke="black" stroke-width="1"/>

<line x1="61" y1="90" x2="61" y2="91" stroke="black" stroke-width="1"/>
<line x1="69" y1="90" x2="69" y2="91" stroke="black" stroke-width="1"/>

<line x1="61" y1="99" x2="69" y2="99" stroke="black" stroke-width="1"/>

<line x1="61" y1="91" x2="61" y2="99" stroke="black" stroke-width="1"/>

<line x1="69" y1="91" x2="69" y2="99" stroke="black" stroke-width="1"/>

<line x1="11" y1="10" x2="11" y2="11" stroke="black" stroke-width="1"/>
<line x1="19" y1="10" x2="19" y2="11" stroke="black" stroke-width="1"/>

<line x1="11" y1="19" x2="11" y2="20" stroke="black" stroke-width="1"/>
<line x1="19" y1="19" x2="19" y2="20" stroke="black" stroke-width="1"/>

<line x1="10" y1="11" x2="11" y2="11" stroke="black" stroke-width="1"/>
<line x1="10" y1="19" x2="11" y2="19" stroke="black" stroke-width="1"/>

<line x1="19" y1="11" x2="20" y2="11" stroke="black" stroke-width="1"/>
<line x1="19" y1="19" x2="20" y2="19" stroke="black" stroke-width="1"/>

<line x1="31" y1="1" x2="39" y2="1" stroke="black" stroke-width="1"/>

<line x1="31" y1="9" x2="39" y2="9" stroke="black" stroke-width="1"/>

<line x1="31" y1="1" x2="31" y2="9" stroke="black" stroke-width="1"/>

<line x1="39" y1="1" x2="40" y2="1" stroke="black" stroke-width="1"/>
<line x1="39" y1="9" x2="40" y2="9" stroke="black" stroke-width="1"/>

<line x1="51" y1="60" x2="51" y2="61" stroke="black" stroke-width="1"/>
<line x1="59" y1="60" x2="59" y2="61" stroke="black" stroke-width="1"/>

<line x1="51" y1="69" x2="59" y2="69" stroke="black" stroke-width="1"/>

<line x1="51" y1="61" x2="51" y2="69" stroke="black" stroke-width="1"/>

<line x1="59" y1="61" x2="60" y2="61" stroke="black" stroke-width="1"/>
<line x1="59" y1="69" x2="60" y2="69" stroke="black" stroke-width="1"/>

<line x1="81" y1="40" x2="81" y2="41" stroke="black" stroke-width="1"/>
<line x1="89" y1="40" x2="89" y2="41" stroke="black" stroke-width="1"/>

<line x1="81" y1="49" x2="81" y2="50" stroke="black" stroke-width="1"/>
<line x1="89" y1="49" x2="89" y2="50" stroke="black" stroke-width="1"/>

<line x1="81" y1="41" x2="81" y2="49" stroke="black" stroke-width="1"/>

<line x1="89" y1="41" x2="89" y2="49" stroke="black" stroke-width="1"/>

<line x1="41" y1="20" x2="41" y2="21" stroke="black" stroke-width="1"/>
<line x1="49" y1="20" x2="49" y2="21" stroke="black" stroke-width="1"/>

<line x1="41" y1="29" x2="49" y2="29" stroke="black" stroke-width="1"/>

<line x1="41" y1="21" x2="41" y2="29" stroke="black" stroke-width="1"/>

<line x1="49" y1="21" x2="49" y2="29" stroke="black" stroke-width="1"/>

<line x1="61" y1="30" x2="61" y2="31" stroke="black" stroke-width="1"/>
<line x1="69" y1="30" x2="69" y2="31" stroke="black" stroke-width="1"/>

<line x1="61" y1="39" x2="61" y2="40" stroke="black" stroke-width="1"/>
<line x1="69" y1="39" x2="69" y2="40" stroke="black" stroke-width="1"/>

<line x1="60" y1="31" x2="61" y2="31" stroke="black" stroke-width="1"/>
<line x1="60" y1="39" x2="61" y2="39" stroke="black" stroke-width="1"/>

<line x1="69" y1="31" x2="70" y2="31" stroke="black" stroke-width="1"/>
<line x1="69" y1="39" x2="70" y2="39" stroke="black" stroke-width="1"/>

<line x1="21" y1="50" x2="21" y2="51" stroke="black" stroke-width="1"/>
<line x1="29" y1="50" x2="29" y2="51" stroke="black" stroke-width="1"/>

<line x1="21" y1="59" x2="29" y2="59" stroke="black" stroke-width="1"/>

<line x1="20" y1="51" x2="21" y2="51" stroke="black" stroke-width="1"/>
<line x1="20" y1="59" x2="21" y2="59" stroke="black" stroke-width="1"/>

<line x1="29" y1="51" x2="29" y2="59" stroke="black" stroke-width="1"/>

<line x1="61" y1="80" x2="61" y2="81" stroke="black" stroke-width="1"/>
<line x1="69" y1="80" x2="69" y2="81" stroke="black" stroke-width="1"/>

<line x1="61" y1="89" x2="61" y2="90" stroke="black" stroke-width="1"/>
<line x1="69" y1="89" x2="69" y2="90" stroke="black" stroke-width="1"/>

<line x1="61" y1="81" x2="61" y2="89" stroke="black" stroke-width="1"/>

<line x1="69" y1="81" x2="69" y2="89" stroke="black" stroke-width="1"/>

<line x1="91" y1="1" x2="99" y2="1" stroke="black" stroke-width="1"/>

<line x1="91" y1="9" x2="99" y2="9" stroke="black" stroke-width="1"/>

<line x1="90" y1="1" x2="91" y2="1" stroke="black" stroke-width="1"/>
<line x1="90" y1="9" x2="91" y2="9" stroke="black" stroke-width="1"/>

<line x1="99" y1="1" x2="99" y2="9" stroke="black" stroke-width="1"/>

<line x1="51" y1="81" x2="59" y2="81" stroke="black" stroke-width="1"/>

<line x1="51" y1="89" x2="51" y2="90" stroke="black" stroke-width="1"/>
<line x1="59" y1="89" x2="59" y2="90" stroke="black" stroke-width="1"/>

<line x1="50" y1="81" x2="51" y2="81" stroke="black" stroke-width="1"/>
<line x1="50" y1="89" x2="51" y2="89" stroke="black" stroke-width="1"/>

<line x1="59" y1="81" x2="59" y2="89" stroke="black" stroke-width="1"/>

<line x1="21" y1="10" x2="21" y2="11" stroke="black" stroke-width="1"/>
<line x1="29" y1="10" x2="29" y2="11" stroke="black" stroke-width="1"/>

<line x1="21" y1="19" x2="21" y2="20" stroke="black" stroke-width="1"/>
<line x1="29" y1="19" x2="29" y2="20" stroke="black" stroke-width="1"/>

<line x1="20" y1="11" x2="21" y2="11" stroke="black" stroke-width="1"/>
<line x1="20" y1="19" x2="21" y2="19" stroke="black" stroke-width="1"/>

<line x1="29" y1="11" x2="30" y2="11" stroke="black" stroke-width="1"/>
<line x1="29" y1="19" x2="30" y2="19" stroke="black" stroke-width="1"/>

<line x1="91" y1="51" x2="99" y2="51" stroke="black" stroke-width="1"/>

<line x1="91" y1="59" x2="91" y2="60" stroke="black" stroke-width="1"/>
<line x1="99" y1="59" x2="99" y2="60" stroke="black" stroke-width="1"/>

<line x1="90" y1="51" x2="91" y2="51" stroke="black" stroke-width="1"/>
<line x1="90" y1="59" x2="91" y2="59" stroke="black" stroke-width="1"/>

<line x1="99" y1="51" x2="99" y2="59" stroke="black" stroke-width="1"/>

<line x1="51" y1="40" x2="51" y2="41" stroke="black" stroke-width="1"/>
<line x1="59" y1="40" x2="59" y2="41" stroke="black" stroke-width="1"/>

<line x1="51" y1="49" x2="59" y2="49" stroke="black" stroke-width="1"/>

<line x1="50" y1="41" x2="51" y2="41" stroke="black" stroke-width="1"/>
<line x1="50" y1="49" x2="51" y2="49" stroke="black" stroke-width="1"/>

<line x1="59" y1="41" x2="59" y2="49" stroke="black" stroke-width="1"/>

</svg>
