<svg xmlns="http://www.w3.org/2000/svg" width="162" height="162">
  <circle cx="81.0" cy="81.0" r="80.0" stroke="black" fill="none"/>
  <line x1="22.152883175806174" y1="92.70541932096772" x2="12.345030371773873" y2="94.656322541129" stroke="black" stroke-width="1"/>

<line x1="21.28891639966819" y1="86.88102841977366" x2="11.337069132946226" y2="87.86119982306926" stroke="black" stroke-width="1"/>

<path d="M 22.152883175806174 92.70541932096772 A 60 60 0 0 1 21.28891639966819 86.88102841977366" stroke="black" stroke-width="1" fill="none"/>


<path d="M 62.522409349774264 73.3463313526982 A 20 20 0 0 1 66.85786437626905 66.85786437626905" stroke="black" stroke-width="1" fill="none"/>

<line x1="31.960735979838475" y1="90.75451610080643" x2="22.152883175806174" y2="92.70541932096772" stroke="black" stroke-width="1"/>

<line x1="31.0" y1="81.0" x2="21.0" y2="81.00000000000001" stroke="black" stroke-width="1"/>

<path d="M 31.960735979838475 90.75451610080643 A 50 50 0 0 1 31.0 81.0" stroke="black" stroke-width="1" fill="none"/>

<path d="M 53.28361402466139 69.51949702904732 A 30 30 0 0 1 59.78679656440357 59.78679656440357" stroke="black" stroke-width="1" fill="none"/>

<path d="M 73.92893218813452 88.07106781186548 A 10 10 0 0 1 71.0 81.0" stroke="black" stroke-width="1" fill="none"/>

<line x1="75.11897158022637" y1="21.28891639966818" x2="74.13880017693077" y2="11.337069132946212" stroke="black" stroke-width="1"/>

<line x1="80.99999999999999" y1="21.0" x2="80.99999999999999" y2="11.0" stroke="black" stroke-width="1"/>

<path d="M 75.11897158022637 21.28891639966818 A 60 60 0 0 1 80.99999999999999 21.0" stroke="black" stroke-width="1" fill="none"/>

<line x1="41.76858878387078" y1="73.19638711935487" x2="31.960735979838475" y2="71.24548389919359" stroke="black" stroke-width="1"/>

<line x1="44.04481869954853" y1="65.69266270539642" x2="34.80602337443566" y2="61.865828381745516" stroke="black" stroke-width="1"/>

<path d="M 41.76858878387078 73.19638711935487 A 40 40 0 0 1 44.04481869954853 65.69266270539642" stroke="black" stroke-width="1" fill="none"/>

<line x1="116.35533905932738" y1="116.35533905932738" x2="123.42640687119285" y2="123.42640687119285" stroke="black" stroke-width="1"/>

<line x1="108.77851165098011" y1="122.57348061512727" x2="114.33421398117613" y2="130.8881767381527" stroke="black" stroke-width="1"/>

<path d="M 116.35533905932738 116.35533905932738 A 50 50 0 0 1 108.77851165098011 122.57348061512727" stroke="black" stroke-width="1" fill="none"/>

<line x1="101.31992740781236" y1="147.98582350125463" x2="104.22277418035699" y2="157.5552268585767" stroke="black" stroke-width="1"/>

<line x1="94.65632254112899" y1="149.65496962822613" x2="96.60722576129027" y2="159.46282243225843" stroke="black" stroke-width="1"/>

<path d="M 101.31992740781236 147.98582350125463 A 70 70 0 0 1 94.65632254112899 149.65496962822613" stroke="black" stroke-width="1" fill="none"/>

<line x1="103.9610059419054" y1="25.5672280493228" x2="107.7878402655563" y2="16.328432724209932" stroke="black" stroke-width="1"/>

<line x1="109.28380420955986" y1="28.084724139098697" x2="113.99777157781983" y2="19.265511495615144" stroke="black" stroke-width="1"/>

<path d="M 103.9610059419054 25.5672280493228 A 60 60 0 0 1 109.28380420955986 28.084724139098697" stroke="black" stroke-width="1" fill="none"/>

<line x1="138.41642014393253" y1="98.41708063526774" x2="147.98582350125463" y2="101.31992740781236" stroke="black" stroke-width="1"/>

<line x1="136.4327719506772" y1="103.96100594190538" x2="145.67156727579007" y2="107.78784026555628" stroke="black" stroke-width="1"/>

<path d="M 138.41642014393253 98.41708063526774 A 60 60 0 0 1 136.4327719506772 103.96100594190538" stroke="black" stroke-width="1" fill="none"/>

<line x1="45.64466094067263" y1="116.35533905932738" x2="38.573593128807154" y2="123.42640687119285" stroke="black" stroke-width="1"/>

<line x1="39.426519384872734" y1="108.77851165098011" x2="31.111823261847277" y2="114.33421398117613" stroke="black" stroke-width="1"/>

<path d="M 45.64466094067263 116.35533905932738 A 50 50 0 0 1 39.426519384872734 108.77851165098011" stroke="black" stroke-width="1" fill="none"/>

<line x1="114.25878449210181" y1="58.77719067921591" x2="122.57348061512727" y2="53.22148834901989" stroke="black" stroke-width="1"/>

<line x1="117.95518130045146" y1="65.69266270539639" x2="127.19397662556432" y2="61.86582838174548" stroke="black" stroke-width="1"/>

<path d="M 114.25878449210181 58.77719067921591 A 40 40 0 0 1 117.95518130045146 65.69266270539639" stroke="black" stroke-width="1" fill="none"/>

<path d="M 51.0 81.0 A 30 30 0 0 1 53.28361402466139 69.51949702904732" stroke="black" stroke-width="1" fill="none"/>

<line x1="127.38062720176421" y1="119.06359704981872" x2="135.1107317353916" y2="125.40752989145518" stroke="black" stroke-width="1"/>

<line x1="123.42640687119285" y1="123.42640687119285" x2="130.49747468305833" y2="130.49747468305833" stroke="black" stroke-width="1"/>

<path d="M 127.38062720176421 119.06359704981872 A 60 60 0 0 1 123.42640687119285 123.42640687119285" stroke="black" stroke-width="1" fill="none"/>

<line x1="81.0" y1="81.0" x2="81.0" y2="71.0" stroke="black" stroke-width="1"/>

<path d="M 81.0 81.0 A 0 0 0 0 1 81.0 81.0" stroke="black" stroke-width="1" fill="none"/>

<line x1="145.67156727579007" y1="107.78784026555628" x2="154.91036260090294" y2="111.61467458920718" stroke="black" stroke-width="1"/>

<line x1="142.73448850438484" y1="113.99777157781983" x2="151.55370114786842" y2="118.7117389460798" stroke="black" stroke-width="1"/>

<path d="M 145.67156727579007 107.78784026555628 A 70 70 0 0 1 142.73448850438484 113.99777157781983" stroke="black" stroke-width="1" fill="none"/>

<line x1="109.2842712474619" y1="109.2842712474619" x2="116.35533905932738" y2="116.35533905932738" stroke="black" stroke-width="1"/>

<line x1="103.2228093207841" y1="114.25878449210181" x2="108.77851165098011" y2="122.57348061512727" stroke="black" stroke-width="1"/>

<path d="M 109.2842712474619 109.2842712474619 A 40 40 0 0 1 103.2228093207841 114.25878449210181" stroke="black" stroke-width="1" fill="none"/>

<line x1="42.93640295018125" y1="34.6193727982358" x2="36.59247010854479" y2="26.889268264608432" stroke="black" stroke-width="1"/>

<line x1="47.665786018823866" y1="31.111823261847285" x2="42.110083688627846" y2="22.797127138821836" stroke="black" stroke-width="1"/>

<path d="M 42.93640295018125 34.6193727982358 A 60 60 0 0 1 47.665786018823866 31.111823261847285" stroke="black" stroke-width="1" fill="none"/>

<line x1="48.00222842218015" y1="19.265511495615158" x2="43.28826105392017" y2="10.446298852131605" stroke="black" stroke-width="1"/>

<line x1="54.212159734443674" y1="16.328432724209947" x2="50.385325410792774" y2="7.089637399097086" stroke="black" stroke-width="1"/>

<path d="M 48.00222842218015 19.265511495615158 A 70 70 0 0 1 54.212159734443674 16.328432724209947" stroke="black" stroke-width="1" fill="none"/>

<line x1="140.71108360033182" y1="75.11897158022637" x2="150.66293086705377" y2="74.13880017693077" stroke="black" stroke-width="1"/>

<line x1="141.0" y1="80.99999999999999" x2="151.0" y2="80.99999999999999" stroke="black" stroke-width="1"/>

<path d="M 140.71108360033182 75.11897158022637 A 60 60 0 0 1 141.0 80.99999999999999" stroke="black" stroke-width="1" fill="none"/>

<line x1="119.06359704981872" y1="127.38062720176421" x2="125.40752989145518" y2="135.1107317353916" stroke="black" stroke-width="1"/>

<line x1="114.33421398117613" y1="130.8881767381527" x2="119.88991631137216" y2="139.20287286117815" stroke="black" stroke-width="1"/>

<path d="M 119.06359704981872 127.38062720176421 A 60 60 0 0 1 114.33421398117613 130.8881767381527" stroke="black" stroke-width="1" fill="none"/>

<line x1="90.75451610080641" y1="130.0392640201615" x2="92.7054193209677" y2="139.84711682419382" stroke="black" stroke-width="1"/>

<line x1="81.0" y1="131.0" x2="81.0" y2="141.0" stroke="black" stroke-width="1"/>

<path d="M 90.75451610080641 130.0392640201615 A 50 50 0 0 1 81.0 131.0" stroke="black" stroke-width="1" fill="none"/>

<path d="M 95.14213562373095 95.14213562373095 A 20 20 0 0 1 88.6536686473018 99.47759065022574" stroke="black" stroke-width="1" fill="none"/>

<path d="M 73.3463313526982 99.47759065022574 A 20 20 0 0 1 66.85786437626905 95.14213562373095" stroke="black" stroke-width="1" fill="none"/>

<line x1="109.28380420955986" y1="133.9152758609013" x2="113.99777157781985" y2="142.73448850438484" stroke="black" stroke-width="1"/>

<line x1="103.9610059419054" y1="136.4327719506772" x2="107.78784026555628" y2="145.67156727579007" stroke="black" stroke-width="1"/>

<path d="M 109.28380420955986 133.9152758609013 A 60 60 0 0 1 103.9610059419054 136.4327719506772" stroke="black" stroke-width="1" fill="none"/>

<line x1="16.328432724209932" y1="107.7878402655563" x2="7.089637399097057" y2="111.6146745892072" stroke="black" stroke-width="1"/>

<line x1="14.014176498745385" y1="101.31992740781237" x2="4.444773141423298" y2="104.22277418035699" stroke="black" stroke-width="1"/>

<path d="M 16.328432724209932 107.7878402655563 A 70 70 0 0 1 14.014176498745385 101.31992740781237" stroke="black" stroke-width="1" fill="none"/>

<line x1="130.0392640201615" y1="90.75451610080641" x2="139.84711682419382" y2="92.70541932096769" stroke="black" stroke-width="1"/>

<line x1="127.19397662556435" y1="100.13417161825448" x2="136.4327719506772" y2="103.96100594190538" stroke="black" stroke-width="1"/>

<path d="M 130.0392640201615 90.75451610080641 A 50 50 0 0 1 127.19397662556435 100.13417161825448" stroke="black" stroke-width="1" fill="none"/>

<line x1="123.42640687119284" y1="38.57359312880714" x2="130.49747468305833" y2="31.502525316941664" stroke="black" stroke-width="1"/>

<line x1="127.3806272017642" y1="42.93640295018125" x2="135.11073173539157" y2="36.59247010854479" stroke="black" stroke-width="1"/>

<path d="M 123.42640687119284 38.57359312880714 A 60 60 0 0 1 127.3806272017642 42.93640295018125" stroke="black" stroke-width="1" fill="none"/>

<line x1="119.88991631137216" y1="139.20287286117815" x2="125.44561864156819" y2="147.51756898420362" stroke="black" stroke-width="1"/>

<line x1="113.99777157781985" y1="142.73448850438484" x2="118.71173894607983" y2="151.5537011478684" stroke="black" stroke-width="1"/>

<path d="M 119.88991631137216 139.20287286117815 A 70 70 0 0 1 113.99777157781985 142.73448850438484" stroke="black" stroke-width="1" fill="none"/>

<line x1="60.68007259218763" y1="14.014176498745385" x2="57.77722581964301" y2="4.444773141423298" stroke="black" stroke-width="1"/>

<path d="M 54.212159734443674 16.328432724209947 A 70 70 0 0 1 60.68007259218763 14.014176498745385" stroke="black" stroke-width="1" fill="none"/>

<line x1="11.0" y1="81.00000000000001" x2="1.0" y2="81.00000000000001" stroke="black" stroke-width="1"/>

<line x1="11.337069132946212" y1="74.13880017693076" x2="1.3852218662242421" y2="73.15862877363516" stroke="black" stroke-width="1"/>

<path d="M 11.0 81.00000000000001 A 70 70 0 0 1 11.337069132946212 74.13880017693076" stroke="black" stroke-width="1" fill="none"/>

<path d="M 81.0 61.0 A 20 20 0 0 1 88.6536686473018 62.522409349774264" stroke="black" stroke-width="1" fill="none"/>

<line x1="11.337069132946226" y1="87.86119982306926" x2="1.3852218662242564" y2="88.84137122636487" stroke="black" stroke-width="1"/>

<path d="M 11.337069132946226 87.86119982306926 A 70 70 0 0 1 11.0 81.00000000000001" stroke="black" stroke-width="1" fill="none"/>

<line x1="31.50252531694168" y1="130.49747468305833" x2="24.431457505076203" y2="137.5685424949238" stroke="black" stroke-width="1"/>

<line x1="26.88926826460841" y1="125.40752989145518" x2="19.159163730981042" y2="131.75146273309164" stroke="black" stroke-width="1"/>

<path d="M 31.50252531694168 130.49747468305833 A 70 70 0 0 1 26.88926826460841 125.40752989145518" stroke="black" stroke-width="1" fill="none"/>

<line x1="73.92893218813452" y1="73.92893218813452" x2="66.85786437626905" y2="66.85786437626905" stroke="black" stroke-width="1"/>

<path d="M 73.92893218813452 73.92893218813452 A 10 10 0 0 1 81.0 71.0" stroke="black" stroke-width="1" fill="none"/>

<line x1="120.2314112161292" y1="73.19638711935485" x2="130.0392640201615" y2="71.24548389919356" stroke="black" stroke-width="1"/>

<line x1="121.0" y1="80.99999999999999" x2="131.0" y2="80.99999999999999" stroke="black" stroke-width="1"/>

<path d="M 120.2314112161292 73.19638711935485 A 40 40 0 0 1 121.0 80.99999999999999" stroke="black" stroke-width="1" fill="none"/>

<line x1="66.85786437626905" y1="95.14213562373095" x2="59.78679656440357" y2="102.21320343559643" stroke="black" stroke-width="1"/>

<path d="M 66.85786437626905 95.14213562373095 A 20 20 0 0 1 62.522409349774264 88.6536686473018" stroke="black" stroke-width="1" fill="none"/>

<line x1="65.69266270539639" y1="44.04481869954854" x2="61.86582838174549" y2="34.806023374435675" stroke="black" stroke-width="1"/>

<line x1="73.19638711935485" y1="41.76858878387079" x2="71.24548389919357" y2="31.960735979838482" stroke="black" stroke-width="1"/>

<path d="M 65.69266270539639 44.04481869954854 A 40 40 0 0 1 73.19638711935485 41.76858878387079" stroke="black" stroke-width="1" fill="none"/>

<path d="M 92.4805029709527 53.283614024661404 A 30 30 0 0 1 102.21320343559643 59.78679656440357" stroke="black" stroke-width="1" fill="none"/>

<line x1="34.80602337443566" y1="61.865828381745516" x2="25.567228049322786" y2="58.038994058094616" stroke="black" stroke-width="1"/>

<line x1="39.42651938487273" y1="53.22148834901991" x2="31.11182326184727" y2="47.66578601882388" stroke="black" stroke-width="1"/>

<path d="M 34.80602337443566 61.865828381745516 A 50 50 0 0 1 39.42651938487273 53.22148834901991" stroke="black" stroke-width="1" fill="none"/>

<line x1="99.47759065022572" y1="73.34633135269819" x2="108.7163859753386" y2="69.51949702904729" stroke="black" stroke-width="1"/>

<path d="M 95.14213562373095 66.85786437626905 A 20 20 0 0 1 99.47759065022572 73.34633135269819" stroke="black" stroke-width="1" fill="none"/>

<line x1="88.07106781186548" y1="88.07106781186548" x2="95.14213562373095" y2="95.14213562373095" stroke="black" stroke-width="1"/>

<line x1="69.5194970290473" y1="108.7163859753386" x2="65.69266270539642" y2="117.95518130045147" stroke="black" stroke-width="1"/>

<line x1="59.78679656440357" y1="102.21320343559643" x2="52.7157287525381" y2="109.2842712474619" stroke="black" stroke-width="1"/>

<path d="M 69.5194970290473 108.7163859753386 A 30 30 0 0 1 59.78679656440357 102.21320343559643" stroke="black" stroke-width="1" fill="none"/>

<line x1="80.99999999999999" y1="31.0" x2="80.99999999999999" y2="21.0" stroke="black" stroke-width="1"/>

<line x1="90.75451610080641" y1="31.960735979838475" x2="92.70541932096769" y2="22.152883175806174" stroke="black" stroke-width="1"/>

<path d="M 80.99999999999999 31.0 A 50 50 0 0 1 90.75451610080641 31.960735979838475" stroke="black" stroke-width="1" fill="none"/>

<line x1="133.91527586090132" y1="109.28380420955986" x2="142.73448850438484" y2="113.99777157781983" stroke="black" stroke-width="1"/>

<path d="M 136.4327719506772 103.96100594190538 A 60 60 0 0 1 133.91527586090132 109.28380420955986" stroke="black" stroke-width="1" fill="none"/>

<line x1="16.328432724209918" y1="54.21215973444372" x2="7.089637399097057" y2="50.38532541079283" stroke="black" stroke-width="1"/>

<line x1="19.265511495615144" y1="48.00222842218017" x2="10.44629885213159" y2="43.28826105392019" stroke="black" stroke-width="1"/>

<path d="M 16.328432724209918 54.21215973444372 A 70 70 0 0 1 19.265511495615144 48.00222842218017" stroke="black" stroke-width="1" fill="none"/>

<line x1="80.99999999999999" y1="41.0" x2="80.99999999999999" y2="31.0" stroke="black" stroke-width="1"/>

<line x1="88.80361288064513" y1="41.76858878387078" x2="90.75451610080641" y2="31.960735979838475" stroke="black" stroke-width="1"/>

<path d="M 80.99999999999999 41.0 A 40 40 0 0 1 88.80361288064513 41.76858878387078" stroke="black" stroke-width="1" fill="none"/>

<line x1="107.78784026555628" y1="145.67156727579007" x2="111.61467458920718" y2="154.91036260090294" stroke="black" stroke-width="1"/>

<path d="M 107.78784026555628 145.67156727579007 A 70 70 0 0 1 101.31992740781236 147.98582350125463" stroke="black" stroke-width="1" fill="none"/>

<line x1="87.86119982306926" y1="150.66293086705377" x2="88.84137122636486" y2="160.61477813377576" stroke="black" stroke-width="1"/>

<path d="M 94.65632254112899 149.65496962822613 A 70 70 0 0 1 87.86119982306926 150.66293086705377" stroke="black" stroke-width="1" fill="none"/>

<line x1="34.80602337443566" y1="100.1341716182545" x2="25.567228049322793" y2="103.9610059419054" stroke="black" stroke-width="1"/>

<path d="M 34.80602337443566 100.1341716182545 A 50 50 0 0 1 31.960735979838475 90.75451610080643" stroke="black" stroke-width="1" fill="none"/>

<line x1="98.41708063526774" y1="138.41642014393253" x2="101.31992740781236" y2="147.98582350125463" stroke="black" stroke-width="1"/>

<path d="M 103.9610059419054 136.4327719506772 A 60 60 0 0 1 98.41708063526774 138.41642014393253" stroke="black" stroke-width="1" fill="none"/>

<line x1="100.1341716182545" y1="127.19397662556435" x2="103.9610059419054" y2="136.4327719506772" stroke="black" stroke-width="1"/>

<path d="M 108.77851165098011 122.57348061512727 A 50 50 0 0 1 100.1341716182545 127.19397662556435" stroke="black" stroke-width="1" fill="none"/>

<line x1="53.22148834901989" y1="39.42651938487274" x2="47.665786018823866" y2="31.111823261847285" stroke="black" stroke-width="1"/>

<line x1="61.86582838174549" y1="34.806023374435675" x2="58.03899405809458" y2="25.567228049322807" stroke="black" stroke-width="1"/>

<path d="M 53.22148834901989 39.42651938487274 A 50 50 0 0 1 61.86582838174549 34.806023374435675" stroke="black" stroke-width="1" fill="none"/>

<line x1="120.23141121612922" y1="88.80361288064513" x2="130.0392640201615" y2="90.75451610080641" stroke="black" stroke-width="1"/>

<line x1="117.95518130045147" y1="96.3073372946036" x2="127.19397662556435" y2="100.13417161825448" stroke="black" stroke-width="1"/>

<path d="M 120.23141121612922 88.80361288064513 A 40 40 0 0 1 117.95518130045147 96.3073372946036" stroke="black" stroke-width="1" fill="none"/>

<line x1="88.07106781186548" y1="73.92893218813452" x2="95.14213562373095" y2="66.85786437626905" stroke="black" stroke-width="1"/>

<path d="M 81.0 71.0 A 10 10 0 0 1 88.07106781186548 73.92893218813452" stroke="black" stroke-width="1" fill="none"/>

<line x1="103.22280932078408" y1="47.74121550789818" x2="108.7785116509801" y2="39.42651938487273" stroke="black" stroke-width="1"/>

<line x1="109.2842712474619" y1="52.71572875253809" x2="116.35533905932738" y2="45.644660940672615" stroke="black" stroke-width="1"/>

<path d="M 103.22280932078408 47.74121550789818 A 40 40 0 0 1 109.2842712474619 52.71572875253809" stroke="black" stroke-width="1" fill="none"/>

<line x1="122.57348061512727" y1="108.77851165098011" x2="130.8881767381527" y2="114.33421398117613" stroke="black" stroke-width="1"/>

<path d="M 122.57348061512727 108.77851165098011 A 50 50 0 0 1 116.35533905932738 116.35533905932738" stroke="black" stroke-width="1" fill="none"/>

<line x1="96.3073372946036" y1="44.044818699548536" x2="100.1341716182545" y2="34.80602337443567" stroke="black" stroke-width="1"/>

<path d="M 88.80361288064513 41.76858878387078 A 40 40 0 0 1 96.3073372946036 44.044818699548536" stroke="black" stroke-width="1" fill="none"/>

<line x1="150.66293086705377" y1="87.86119982306924" x2="160.61477813377576" y2="88.84137122636484" stroke="black" stroke-width="1"/>

<line x1="149.65496962822613" y1="94.65632254112897" x2="159.46282243225843" y2="96.60722576129027" stroke="black" stroke-width="1"/>

<path d="M 150.66293086705377 87.86119982306924 A 70 70 0 0 1 149.65496962822613 94.65632254112897" stroke="black" stroke-width="1" fill="none"/>

<line x1="141.0" y1="81.0" x2="151.0" y2="81.0" stroke="black" stroke-width="1"/>

<line x1="140.71108360033182" y1="86.88102841977364" x2="150.66293086705377" y2="87.86119982306924" stroke="black" stroke-width="1"/>

<path d="M 141.0 81.0 A 60 60 0 0 1 140.71108360033182 86.88102841977364" stroke="black" stroke-width="1" fill="none"/>

<line x1="36.59247010854479" y1="26.889268264608432" x2="30.24853726690833" y2="19.159163730981064" stroke="black" stroke-width="1"/>

<line x1="42.110083688627846" y1="22.797127138821836" x2="36.554381358431826" y2="14.48243101579638" stroke="black" stroke-width="1"/>

<path d="M 36.59247010854479 26.889268264608432 A 70 70 0 0 1 42.110083688627846 22.797127138821836" stroke="black" stroke-width="1" fill="none"/>

<line x1="151.0" y1="80.99999999999999" x2="161.0" y2="80.99999999999999" stroke="black" stroke-width="1"/>

<line x1="150.66293086705377" y1="87.8611998230692" x2="160.61477813377576" y2="88.8413712263648" stroke="black" stroke-width="1"/>

<path d="M 151.0 80.99999999999999 A 70 70 0 0 1 150.66293086705377 87.8611998230692" stroke="black" stroke-width="1" fill="none"/>

<line x1="47.66578601882388" y1="130.88817673815274" x2="42.11008368862786" y2="139.20287286117818" stroke="black" stroke-width="1"/>

<line x1="42.936402950181275" y1="127.38062720176423" x2="36.59247010854482" y2="135.1107317353916" stroke="black" stroke-width="1"/>

<path d="M 47.66578601882388 130.88817673815274 A 60 60 0 0 1 42.936402950181275 127.38062720176423" stroke="black" stroke-width="1" fill="none"/>

<line x1="135.1107317353916" y1="125.40752989145518" x2="142.84083626901895" y2="131.75146273309164" stroke="black" stroke-width="1"/>

<line x1="130.49747468305833" y1="130.49747468305833" x2="137.5685424949238" y2="137.5685424949238" stroke="black" stroke-width="1"/>

<path d="M 135.1107317353916 125.40752989145518 A 70 70 0 0 1 130.49747468305833 130.49747468305833" stroke="black" stroke-width="1" fill="none"/>

<line x1="81.0" y1="141.0" x2="81.0" y2="151.0" stroke="black" stroke-width="1"/>

<line x1="75.11897158022636" y1="140.71108360033182" x2="74.13880017693076" y2="150.66293086705377" stroke="black" stroke-width="1"/>

<path d="M 81.0 141.0 A 60 60 0 0 1 75.11897158022636 140.71108360033182" stroke="black" stroke-width="1" fill="none"/>

<line x1="87.8611998230692" y1="11.337069132946212" x2="88.84137122636481" y2="1.3852218662242421" stroke="black" stroke-width="1"/>

<line x1="94.65632254112899" y1="12.345030371773873" x2="96.60722576129027" y2="2.5371775677415656" stroke="black" stroke-width="1"/>

<path d="M 87.8611998230692 11.337069132946212 A 70 70 0 0 1 94.65632254112899 12.345030371773873" stroke="black" stroke-width="1" fill="none"/>

<line x1="101.31992740781234" y1="14.014176498745371" x2="104.22277418035696" y2="4.444773141423283" stroke="black" stroke-width="1"/>

<path d="M 94.65632254112899 12.345030371773873 A 70 70 0 0 1 101.31992740781234 14.014176498745371" stroke="black" stroke-width="1" fill="none"/>

<line x1="54.212159734443716" y1="145.67156727579007" x2="50.385325410792824" y2="154.91036260090294" stroke="black" stroke-width="1"/>

<line x1="48.00222842218016" y1="142.73448850438484" x2="43.28826105392018" y2="151.55370114786842" stroke="black" stroke-width="1"/>

<path d="M 54.212159734443716 145.67156727579007 A 70 70 0 0 1 48.00222842218016 142.73448850438484" stroke="black" stroke-width="1" fill="none"/>

<line x1="25.567228049322786" y1="58.038994058094616" x2="16.328432724209918" y2="54.21215973444372" stroke="black" stroke-width="1"/>

<line x1="28.084724139098697" y1="52.71619579044014" x2="19.265511495615144" y2="48.00222842218017" stroke="black" stroke-width="1"/>

<path d="M 25.567228049322786 58.038994058094616 A 60 60 0 0 1 28.084724139098697 52.71619579044014" stroke="black" stroke-width="1" fill="none"/>

<line x1="31.11182326184727" y1="47.66578601882388" x2="22.79712713882182" y2="42.11008368862786" stroke="black" stroke-width="1"/>

<path d="M 28.084724139098697 52.71619579044014 A 60 60 0 0 1 31.11182326184727 47.66578601882388" stroke="black" stroke-width="1" fill="none"/>

<line x1="92.7054193209677" y1="139.84711682419382" x2="94.65632254112899" y2="149.65496962822613" stroke="black" stroke-width="1"/>

<path d="M 98.41708063526774 138.41642014393253 A 60 60 0 0 1 92.7054193209677 139.84711682419382" stroke="black" stroke-width="1" fill="none"/>

<line x1="58.03899405809458" y1="25.567228049322807" x2="54.212159734443674" y2="16.328432724209947" stroke="black" stroke-width="1"/>

<line x1="63.58291936473225" y1="23.583579856067473" x2="60.68007259218763" y2="14.014176498745385" stroke="black" stroke-width="1"/>

<path d="M 58.03899405809458 25.567228049322807 A 60 60 0 0 1 63.58291936473225 23.583579856067473" stroke="black" stroke-width="1" fill="none"/>

<line x1="73.19638711935487" y1="120.23141121612922" x2="71.24548389919359" y2="130.0392640201615" stroke="black" stroke-width="1"/>

<line x1="65.69266270539642" y1="117.95518130045147" x2="61.865828381745516" y2="127.19397662556435" stroke="black" stroke-width="1"/>

<path d="M 73.19638711935487 120.23141121612922 A 40 40 0 0 1 65.69266270539642 117.95518130045147" stroke="black" stroke-width="1" fill="none"/>

<path d="M 113.99777157781985 142.73448850438484 A 70 70 0 0 1 107.78784026555628 145.67156727579007" stroke="black" stroke-width="1" fill="none"/>

<line x1="58.77719067921591" y1="47.74121550789819" x2="53.22148834901989" y2="39.42651938487274" stroke="black" stroke-width="1"/>

<path d="M 58.77719067921591 47.74121550789819 A 40 40 0 0 1 65.69266270539639 44.04481869954854" stroke="black" stroke-width="1" fill="none"/>

<line x1="86.88102841977364" y1="140.71108360033182" x2="87.86119982306926" y2="150.66293086705377" stroke="black" stroke-width="1"/>

<path d="M 92.7054193209677 139.84711682419382 A 60 60 0 0 1 86.88102841977364 140.71108360033182" stroke="black" stroke-width="1" fill="none"/>

<line x1="92.70541932096769" y1="22.152883175806174" x2="94.65632254112899" y2="12.345030371773873" stroke="black" stroke-width="1"/>

<line x1="98.41708063526772" y1="23.583579856067466" x2="101.31992740781234" y2="14.014176498745371" stroke="black" stroke-width="1"/>

<path d="M 92.70541932096769 22.152883175806174 A 60 60 0 0 1 98.41708063526772 23.583579856067466" stroke="black" stroke-width="1" fill="none"/>

<line x1="111.0" y1="81.0" x2="121.0" y2="81.0" stroke="black" stroke-width="1"/>

<line x1="108.7163859753386" y1="92.4805029709527" x2="117.95518130045147" y2="96.3073372946036" stroke="black" stroke-width="1"/>

<path d="M 92.4805029709527 108.7163859753386 A 30 30 0 0 1 81.0 111.0" stroke="black" stroke-width="1" fill="none"/>

<line x1="34.61937279823578" y1="119.06359704981872" x2="26.88926826460841" y2="125.40752989145518" stroke="black" stroke-width="1"/>

<line x1="31.111823261847277" y1="114.33421398117613" x2="22.79712713882183" y2="119.88991631137216" stroke="black" stroke-width="1"/>

<path d="M 34.61937279823578 119.06359704981872 A 60 60 0 0 1 31.111823261847277 114.33421398117613" stroke="black" stroke-width="1" fill="none"/>

<line x1="34.61937279823577" y1="42.93640295018128" x2="26.889268264608404" y2="36.59247010854483" stroke="black" stroke-width="1"/>

<path d="M 31.11182326184727 47.66578601882388 A 60 60 0 0 1 34.61937279823577 42.93640295018128" stroke="black" stroke-width="1" fill="none"/>

<line x1="88.80361288064513" y1="120.23141121612922" x2="90.75451610080641" y2="130.0392640201615" stroke="black" stroke-width="1"/>

<line x1="81.0" y1="121.0" x2="81.0" y2="131.0" stroke="black" stroke-width="1"/>

<path d="M 88.80361288064513 120.23141121612922 A 40 40 0 0 1 81.0 121.0" stroke="black" stroke-width="1" fill="none"/>

<line x1="125.40752989145518" y1="135.1107317353916" x2="131.75146273309164" y2="142.84083626901895" stroke="black" stroke-width="1"/>

<path d="M 130.49747468305833 130.49747468305833 A 70 70 0 0 1 125.40752989145518 135.1107317353916" stroke="black" stroke-width="1" fill="none"/>

<line x1="59.78679656440357" y1="59.78679656440357" x2="52.71572875253809" y2="52.7157287525381" stroke="black" stroke-width="1"/>

<path d="M 59.78679656440357 59.78679656440357 A 30 30 0 0 1 69.51949702904729 53.283614024661404" stroke="black" stroke-width="1" fill="none"/>

<line x1="52.716195790440125" y1="28.084724139098704" x2="48.00222842218015" y2="19.265511495615158" stroke="black" stroke-width="1"/>

<path d="M 52.716195790440125 28.084724139098704 A 60 60 0 0 1 58.03899405809458 25.567228049322807" stroke="black" stroke-width="1" fill="none"/>

<path d="M 42.110083688627846 22.797127138821836 A 70 70 0 0 1 48.00222842218015 19.265511495615158" stroke="black" stroke-width="1" fill="none"/>

<line x1="135.11073173539157" y1="36.59247010854479" x2="142.84083626901895" y2="30.24853726690833" stroke="black" stroke-width="1"/>

<line x1="139.20287286117815" y1="42.110083688627846" x2="147.51756898420362" y2="36.554381358431826" stroke="black" stroke-width="1"/>

<path d="M 135.11073173539157 36.59247010854479 A 70 70 0 0 1 139.20287286117815 42.110083688627846" stroke="black" stroke-width="1" fill="none"/>

<line x1="151.0" y1="81.0" x2="161.0" y2="81.0" stroke="black" stroke-width="1"/>

<path d="M 151.0 81.0 A 70 70 0 0 1 150.66293086705377 87.86119982306924" stroke="black" stroke-width="1" fill="none"/>

<path d="M 39.426519384872734 108.77851165098011 A 50 50 0 0 1 34.80602337443566 100.1341716182545" stroke="black" stroke-width="1" fill="none"/>

<line x1="41.0" y1="81.0" x2="31.0" y2="81.0" stroke="black" stroke-width="1"/>

<path d="M 41.0 81.0 A 40 40 0 0 1 41.76858878387078 73.19638711935487" stroke="black" stroke-width="1" fill="none"/>

<path d="M 99.47759065022574 88.6536686473018 A 20 20 0 0 1 95.14213562373095 95.14213562373095" stroke="black" stroke-width="1" fill="none"/>

<line x1="21.0" y1="81.00000000000001" x2="11.0" y2="81.00000000000001" stroke="black" stroke-width="1"/>

<line x1="21.28891639966818" y1="75.11897158022637" x2="11.337069132946212" y2="74.13880017693076" stroke="black" stroke-width="1"/>

<path d="M 21.0 81.00000000000001 A 60 60 0 0 1 21.28891639966818 75.11897158022637" stroke="black" stroke-width="1" fill="none"/>

<line x1="139.20287286117815" y1="119.88991631137216" x2="147.51756898420362" y2="125.44561864156817" stroke="black" stroke-width="1"/>

<path d="M 142.73448850438484 113.99777157781983 A 70 70 0 0 1 139.20287286117815 119.88991631137216" stroke="black" stroke-width="1" fill="none"/>

<line x1="38.57359312880714" y1="38.573593128807154" x2="31.502525316941664" y2="31.50252531694168" stroke="black" stroke-width="1"/>

<path d="M 34.61937279823577 42.93640295018128 A 60 60 0 0 1 38.57359312880714 38.573593128807154" stroke="black" stroke-width="1" fill="none"/>

<line x1="22.152883175806174" y1="69.2945806790323" x2="12.345030371773873" y2="67.34367745887101" stroke="black" stroke-width="1"/>

<line x1="23.583579856067466" y1="63.58291936473228" x2="14.014176498745371" y2="60.680072592187656" stroke="black" stroke-width="1"/>

<path d="M 22.152883175806174 69.2945806790323 A 60 60 0 0 1 23.583579856067466 63.58291936473228" stroke="black" stroke-width="1" fill="none"/>

<line x1="12.345030371773873" y1="94.656322541129" x2="2.5371775677415656" y2="96.6072257612903" stroke="black" stroke-width="1"/>

<path d="M 14.014176498745385 101.31992740781237 A 70 70 0 0 1 12.345030371773873 94.656322541129" stroke="black" stroke-width="1" fill="none"/>

<line x1="81.0" y1="111.0" x2="81.0" y2="121.0" stroke="black" stroke-width="1"/>

<path d="M 81.0 111.0 A 30 30 0 0 1 69.5194970290473 108.7163859753386" stroke="black" stroke-width="1" fill="none"/>

<line x1="22.79712713882182" y1="42.11008368862786" x2="14.482431015796365" y2="36.55438135843184" stroke="black" stroke-width="1"/>

<line x1="26.889268264608404" y1="36.59247010854483" x2="19.159163730981035" y2="30.24853726690838" stroke="black" stroke-width="1"/>

<path d="M 22.79712713882182 42.11008368862786 A 70 70 0 0 1 26.889268264608404 36.59247010854483" stroke="black" stroke-width="1" fill="none"/>

<line x1="114.3342139811761" y1="31.11182326184727" x2="119.88991631137213" y2="22.79712713882182" stroke="black" stroke-width="1"/>

<line x1="119.06359704981874" y1="34.61937279823579" x2="125.4075298914552" y2="26.88926826460842" stroke="black" stroke-width="1"/>

<path d="M 114.3342139811761 31.11182326184727 A 60 60 0 0 1 119.06359704981874 34.61937279823579" stroke="black" stroke-width="1" fill="none"/>

<line x1="131.0" y1="80.99999999999999" x2="141.0" y2="80.99999999999999" stroke="black" stroke-width="1"/>

<path d="M 131.0 80.99999999999999 A 50 50 0 0 1 130.0392640201615 90.75451610080641" stroke="black" stroke-width="1" fill="none"/>

<path d="M 19.265511495615144 48.00222842218017 A 70 70 0 0 1 22.79712713882182 42.11008368862786" stroke="black" stroke-width="1" fill="none"/>

<line x1="149.65496962822613" y1="67.34367745887099" x2="159.4628224322584" y2="65.3927742387097" stroke="black" stroke-width="1"/>

<line x1="150.66293086705377" y1="74.13880017693077" x2="160.61477813377576" y2="73.15862877363516" stroke="black" stroke-width="1"/>

<path d="M 149.65496962822613 67.34367745887099 A 70 70 0 0 1 150.66293086705377 74.13880017693077" stroke="black" stroke-width="1" fill="none"/>

<line x1="113.99777157781983" y1="19.265511495615144" x2="118.7117389460798" y2="10.44629885213159" stroke="black" stroke-width="1"/>

<line x1="119.88991631137213" y1="22.79712713882182" x2="125.44561864156815" y2="14.482431015796365" stroke="black" stroke-width="1"/>

<path d="M 113.99777157781983 19.265511495615144 A 70 70 0 0 1 119.88991631137213 22.79712713882182" stroke="black" stroke-width="1" fill="none"/>

<line x1="91.0" y1="81.0" x2="101.0" y2="81.0" stroke="black" stroke-width="1"/>

<path d="M 91.0 81.0 A 10 10 0 0 1 88.07106781186548 88.07106781186548" stroke="black" stroke-width="1" fill="none"/>

<path d="M 119.06359704981874 34.61937279823579 A 60 60 0 0 1 123.42640687119284 38.57359312880714" stroke="black" stroke-width="1" fill="none"/>

<line x1="88.6536686473018" y1="99.47759065022574" x2="92.4805029709527" y2="108.7163859753386" stroke="black" stroke-width="1"/>

<path d="M 88.6536686473018 99.47759065022574 A 20 20 0 0 1 81.0 101.0" stroke="black" stroke-width="1" fill="none"/>

<line x1="69.29458067903228" y1="22.15288317580618" x2="67.343677458871" y2="12.345030371773873" stroke="black" stroke-width="1"/>

<path d="M 69.29458067903228 22.15288317580618 A 60 60 0 0 1 75.11897158022637 21.28891639966818" stroke="black" stroke-width="1" fill="none"/>

<path d="M 99.47759065022572 73.34633135269819 A 20 20 0 0 1 101.0 81.0" stroke="black" stroke-width="1" fill="none"/>

<line x1="122.57348061512727" y1="53.22148834901989" x2="130.8881767381527" y2="47.665786018823866" stroke="black" stroke-width="1"/>

<line x1="127.19397662556432" y1="61.86582838174548" x2="136.4327719506772" y2="58.03899405809457" stroke="black" stroke-width="1"/>

<path d="M 122.57348061512727 53.22148834901989 A 50 50 0 0 1 127.19397662556432 61.86582838174548" stroke="black" stroke-width="1" fill="none"/>

<line x1="136.4327719506772" y1="58.03899405809457" x2="145.67156727579004" y2="54.212159734443674" stroke="black" stroke-width="1"/>

<line x1="138.41642014393253" y1="63.58291936473225" x2="147.98582350125463" y2="60.68007259218763" stroke="black" stroke-width="1"/>

<path d="M 136.4327719506772 58.03899405809457 A 60 60 0 0 1 138.41642014393253 63.58291936473225" stroke="black" stroke-width="1" fill="none"/>

<path d="M 109.28380420955986 28.084724139098697 A 60 60 0 0 1 114.3342139811761 31.11182326184727" stroke="black" stroke-width="1" fill="none"/>

<line x1="114.25878449210181" y1="103.22280932078408" x2="122.57348061512727" y2="108.77851165098011" stroke="black" stroke-width="1"/>

<path d="M 117.95518130045147 96.3073372946036 A 40 40 0 0 1 114.25878449210181 103.22280932078408" stroke="black" stroke-width="1" fill="none"/>

<path d="M 88.07106781186548 73.92893218813452 A 10 10 0 0 1 91.0 81.0" stroke="black" stroke-width="1" fill="none"/>

<path d="M 123.42640687119285 123.42640687119285 A 60 60 0 0 1 119.06359704981872 127.38062720176421" stroke="black" stroke-width="1" fill="none"/>

<line x1="45.644660940672615" y1="45.64466094067263" x2="38.57359312880714" y2="38.573593128807154" stroke="black" stroke-width="1"/>

<path d="M 39.42651938487273 53.22148834901991 A 50 50 0 0 1 45.644660940672615 45.64466094067263" stroke="black" stroke-width="1" fill="none"/>

<line x1="44.04481869954853" y1="96.3073372946036" x2="34.80602337443566" y2="100.1341716182545" stroke="black" stroke-width="1"/>

<line x1="41.76858878387078" y1="88.80361288064515" x2="31.960735979838475" y2="90.75451610080643" stroke="black" stroke-width="1"/>

<path d="M 44.04481869954853 96.3073372946036 A 40 40 0 0 1 41.76858878387078 88.80361288064515" stroke="black" stroke-width="1" fill="none"/>

<line x1="28.084724139098704" y1="109.28380420955988" x2="19.265511495615158" y2="113.99777157781985" stroke="black" stroke-width="1"/>

<line x1="25.567228049322793" y1="103.9610059419054" x2="16.328432724209932" y2="107.7878402655563" stroke="black" stroke-width="1"/>

<path d="M 28.084724139098704 109.28380420955988 A 60 60 0 0 1 25.567228049322793 103.9610059419054" stroke="black" stroke-width="1" fill="none"/>

<line x1="53.22148834901991" y1="122.57348061512727" x2="47.66578601882388" y2="130.88817673815274" stroke="black" stroke-width="1"/>

<path d="M 53.22148834901991 122.57348061512727 A 50 50 0 0 1 45.64466094067263 116.35533905932738" stroke="black" stroke-width="1" fill="none"/>

<line x1="31.502525316941664" y1="31.50252531694168" x2="24.43145750507618" y2="24.431457505076203" stroke="black" stroke-width="1"/>

<path d="M 31.502525316941664 31.50252531694168 A 70 70 0 0 1 36.59247010854479 26.889268264608432" stroke="black" stroke-width="1" fill="none"/>

<line x1="130.8881767381527" y1="114.33421398117613" x2="139.20287286117815" y2="119.88991631137216" stroke="black" stroke-width="1"/>

<path d="M 130.8881767381527 114.33421398117613 A 60 60 0 0 1 127.38062720176421 119.06359704981872" stroke="black" stroke-width="1" fill="none"/>

<line x1="125.4075298914552" y1="26.88926826460842" x2="131.75146273309164" y2="19.15916373098105" stroke="black" stroke-width="1"/>

<path d="M 119.88991631137213 22.79712713882182 A 70 70 0 0 1 125.4075298914552 26.88926826460842" stroke="black" stroke-width="1" fill="none"/>

<line x1="22.79712713882183" y1="119.88991631137216" x2="14.48243101579638" y2="125.44561864156817" stroke="black" stroke-width="1"/>

<path d="M 26.88926826460841 125.40752989145518 A 70 70 0 0 1 22.79712713882183 119.88991631137216" stroke="black" stroke-width="1" fill="none"/>

<line x1="42.11008368862786" y1="139.20287286117818" x2="36.55438135843184" y2="147.51756898420365" stroke="black" stroke-width="1"/>

<line x1="36.59247010854482" y1="135.1107317353916" x2="30.24853726690837" y2="142.84083626901895" stroke="black" stroke-width="1"/>

<path d="M 42.11008368862786 139.20287286117818 A 70 70 0 0 1 36.59247010854482 135.1107317353916" stroke="black" stroke-width="1" fill="none"/>

<line x1="142.73448850438484" y1="48.002228422180146" x2="151.55370114786837" y2="43.288261053920166" stroke="black" stroke-width="1"/>

<path d="M 139.20287286117815 42.110083688627846 A 70 70 0 0 1 142.73448850438484 48.002228422180146" stroke="black" stroke-width="1" fill="none"/>

<path d="M 21.28891639966819 86.88102841977366 A 60 60 0 0 1 21.0 81.00000000000001" stroke="black" stroke-width="1" fill="none"/>

<path d="M 100.1341716182545 127.19397662556435 A 50 50 0 0 1 90.75451610080641 130.0392640201615" stroke="black" stroke-width="1" fill="none"/>

<line x1="63.58291936473227" y1="138.41642014393253" x2="60.68007259218765" y2="147.98582350125463" stroke="black" stroke-width="1"/>

<line x1="58.038994058094616" y1="136.4327719506772" x2="54.212159734443716" y2="145.67156727579007" stroke="black" stroke-width="1"/>

<path d="M 63.58291936473227 138.41642014393253 A 60 60 0 0 1 58.038994058094616 136.4327719506772" stroke="black" stroke-width="1" fill="none"/>

<line x1="74.13880017693077" y1="11.337069132946212" x2="73.15862877363516" y2="1.3852218662242421" stroke="black" stroke-width="1"/>

<line x1="80.99999999999999" y1="11.0" x2="80.99999999999999" y2="1.0" stroke="black" stroke-width="1"/>

<path d="M 74.13880017693077 11.337069132946212 A 70 70 0 0 1 80.99999999999999 11.0" stroke="black" stroke-width="1" fill="none"/>

<path d="M 23.583579856067466 63.58291936473228 A 60 60 0 0 1 25.567228049322786 58.038994058094616" stroke="black" stroke-width="1" fill="none"/>

<line x1="100.1341716182545" y1="34.80602337443567" x2="103.9610059419054" y2="25.5672280493228" stroke="black" stroke-width="1"/>

<path d="M 90.75451610080641 31.960735979838475 A 50 50 0 0 1 100.1341716182545 34.80602337443567" stroke="black" stroke-width="1" fill="none"/>

<path d="M 71.0 81.0 A 10 10 0 0 1 73.92893218813452 73.92893218813452" stroke="black" stroke-width="1" fill="none"/>

<path d="M 61.0 81.0 A 20 20 0 0 1 62.522409349774264 73.3463313526982" stroke="black" stroke-width="1" fill="none"/>

<path d="M 109.2842712474619 52.71572875253809 A 40 40 0 0 1 114.25878449210181 58.77719067921591" stroke="black" stroke-width="1" fill="none"/>

<line x1="116.35533905932738" y1="45.644660940672615" x2="123.42640687119284" y2="38.57359312880714" stroke="black" stroke-width="1"/>

<path d="M 116.35533905932738 45.644660940672615 A 50 50 0 0 1 122.57348061512727 53.22148834901989" stroke="black" stroke-width="1" fill="none"/>

<path d="M 139.20287286117815 119.88991631137216 A 70 70 0 0 1 135.1107317353916 125.40752989145518" stroke="black" stroke-width="1" fill="none"/>

<line x1="71.24548389919359" y1="130.0392640201615" x2="69.29458067903231" y2="139.84711682419382" stroke="black" stroke-width="1"/>

<path d="M 81.0 131.0 A 50 50 0 0 1 71.24548389919359 130.0392640201615" stroke="black" stroke-width="1" fill="none"/>

<line x1="81.0" y1="81.0" x2="91.0" y2="81.0" stroke="black" stroke-width="1"/>

<line x1="81.0" y1="81.0" x2="88.07106781186548" y2="88.07106781186548" stroke="black" stroke-width="1"/>

<line x1="86.8810284197736" y1="21.28891639966818" x2="87.8611998230692" y2="11.337069132946212" stroke="black" stroke-width="1"/>

<path d="M 86.8810284197736 21.28891639966818 A 60 60 0 0 1 92.70541932096769 22.152883175806174" stroke="black" stroke-width="1" fill="none"/>

<path d="M 36.59247010854482 135.1107317353916 A 70 70 0 0 1 31.50252531694168 130.49747468305833" stroke="black" stroke-width="1" fill="none"/>

<line x1="58.77719067921592" y1="114.25878449210182" x2="53.22148834901991" y2="122.57348061512727" stroke="black" stroke-width="1"/>

<path d="M 65.69266270539642 117.95518130045147 A 40 40 0 0 1 58.77719067921592 114.25878449210182" stroke="black" stroke-width="1" fill="none"/>

<line x1="52.7157287525381" y1="109.2842712474619" x2="45.64466094067263" y2="116.35533905932738" stroke="black" stroke-width="1"/>

<path d="M 58.77719067921592 114.25878449210182 A 40 40 0 0 1 52.7157287525381 109.2842712474619" stroke="black" stroke-width="1" fill="none"/>

<line x1="81.0" y1="51.0" x2="80.99999999999999" y2="41.0" stroke="black" stroke-width="1"/>

<path d="M 69.51949702904729 53.283614024661404 A 30 30 0 0 1 81.0 51.0" stroke="black" stroke-width="1" fill="none"/>

<line x1="147.98582350125463" y1="101.31992740781236" x2="157.5552268585767" y2="104.22277418035699" stroke="black" stroke-width="1"/>

<path d="M 149.65496962822613 94.65632254112897 A 70 70 0 0 1 147.98582350125463 101.31992740781236" stroke="black" stroke-width="1" fill="none"/>

<path d="M 73.19638711935485 41.76858878387079 A 40 40 0 0 1 80.99999999999999 41.0" stroke="black" stroke-width="1" fill="none"/>

<path d="M 98.41708063526772 23.583579856067466 A 60 60 0 0 1 103.9610059419054 25.5672280493228" stroke="black" stroke-width="1" fill="none"/>

<path d="M 45.644660940672615 45.64466094067263 A 50 50 0 0 1 53.22148834901989 39.42651938487274" stroke="black" stroke-width="1" fill="none"/>

<line x1="81.0" y1="81.0" x2="88.07106781186548" y2="73.92893218813452" stroke="black" stroke-width="1"/>

<line x1="52.71619579044014" y1="133.91527586090132" x2="48.00222842218016" y2="142.73448850438484" stroke="black" stroke-width="1"/>

<path d="M 58.038994058094616 136.4327719506772 A 60 60 0 0 1 52.71619579044014 133.91527586090132" stroke="black" stroke-width="1" fill="none"/>

<path d="M 80.99999999999999 11.0 A 70 70 0 0 1 87.8611998230692 11.337069132946212" stroke="black" stroke-width="1" fill="none"/>

<line x1="139.84711682419382" y1="92.70541932096769" x2="149.65496962822613" y2="94.65632254112897" stroke="black" stroke-width="1"/>

<path d="M 139.84711682419382 92.70541932096769 A 60 60 0 0 1 138.41642014393253 98.41708063526774" stroke="black" stroke-width="1" fill="none"/>

<path d="M 121.0 80.99999999999999 A 40 40 0 0 1 120.23141121612922 88.80361288064513" stroke="black" stroke-width="1" fill="none"/>

<line x1="69.29458067903231" y1="139.84711682419382" x2="67.34367745887103" y2="149.65496962822613" stroke="black" stroke-width="1"/>

<path d="M 75.11897158022636 140.71108360033182 A 60 60 0 0 1 69.29458067903231 139.84711682419382" stroke="black" stroke-width="1" fill="none"/>

<line x1="96.3073372946036" y1="117.95518130045147" x2="100.1341716182545" y2="127.19397662556435" stroke="black" stroke-width="1"/>

<path d="M 96.3073372946036 117.95518130045147 A 40 40 0 0 1 88.80361288064513 120.23141121612922" stroke="black" stroke-width="1" fill="none"/>

<line x1="61.0" y1="81.0" x2="51.0" y2="81.0" stroke="black" stroke-width="1"/>

<path d="M 62.522409349774264 88.6536686473018 A 20 20 0 0 1 61.0 81.0" stroke="black" stroke-width="1" fill="none"/>

<line x1="67.34367745887103" y1="149.65496962822613" x2="65.39277423870975" y2="159.46282243225843" stroke="black" stroke-width="1"/>

<line x1="60.68007259218765" y1="147.98582350125463" x2="57.77722581964303" y2="157.5552268585767" stroke="black" stroke-width="1"/>

<path d="M 67.34367745887103 149.65496962822613 A 70 70 0 0 1 60.68007259218765 147.98582350125463" stroke="black" stroke-width="1" fill="none"/>

<line x1="145.67156727579004" y1="54.212159734443674" x2="154.9103626009029" y2="50.38532541079277" stroke="black" stroke-width="1"/>

<line x1="147.98582350125463" y1="60.68007259218763" x2="157.5552268585767" y2="57.777225819643" stroke="black" stroke-width="1"/>

<path d="M 145.67156727579004 54.212159734443674 A 70 70 0 0 1 147.98582350125463 60.68007259218763" stroke="black" stroke-width="1" fill="none"/>

<line x1="139.84711682419382" y1="69.29458067903228" x2="149.65496962822613" y2="67.34367745887099" stroke="black" stroke-width="1"/>

<path d="M 138.41642014393253 63.58291936473225 A 60 60 0 0 1 139.84711682419382 69.29458067903228" stroke="black" stroke-width="1" fill="none"/>

<path d="M 73.3463313526982 62.52240934977427 A 20 20 0 0 1 81.0 61.0" stroke="black" stroke-width="1" fill="none"/>

<line x1="12.345030371773873" y1="67.34367745887101" x2="2.5371775677415656" y2="65.39277423870973" stroke="black" stroke-width="1"/>

<line x1="14.014176498745371" y1="60.680072592187656" x2="4.444773141423283" y2="57.777225819643036" stroke="black" stroke-width="1"/>

<path d="M 12.345030371773873 67.34367745887101 A 70 70 0 0 1 14.014176498745371 60.680072592187656" stroke="black" stroke-width="1" fill="none"/>

<line x1="99.47759065022574" y1="88.6536686473018" x2="108.7163859753386" y2="92.4805029709527" stroke="black" stroke-width="1"/>

<path d="M 101.0 81.0 A 20 20 0 0 1 99.47759065022574 88.6536686473018" stroke="black" stroke-width="1" fill="none"/>

<line x1="31.960735979838475" y1="71.24548389919359" x2="22.152883175806174" y2="69.2945806790323" stroke="black" stroke-width="1"/>

<path d="M 31.0 81.0 A 50 50 0 0 1 31.960735979838475 71.24548389919359" stroke="black" stroke-width="1" fill="none"/>

<path d="M 140.71108360033182 86.88102841977364 A 60 60 0 0 1 139.84711682419382 92.70541932096769" stroke="black" stroke-width="1" fill="none"/>

<line x1="102.21320343559643" y1="102.21320343559643" x2="109.2842712474619" y2="109.2842712474619" stroke="black" stroke-width="1"/>

<path d="M 108.7163859753386 92.4805029709527 A 30 30 0 0 1 102.21320343559643 102.21320343559643" stroke="black" stroke-width="1" fill="none"/>

<line x1="47.74121550789819" y1="103.22280932078408" x2="39.426519384872734" y2="108.77851165098011" stroke="black" stroke-width="1"/>

<path d="M 47.74121550789819 103.22280932078408 A 40 40 0 0 1 44.04481869954853 96.3073372946036" stroke="black" stroke-width="1" fill="none"/>

<line x1="133.9152758609013" y1="52.716195790440125" x2="142.73448850438484" y2="48.002228422180146" stroke="black" stroke-width="1"/>

<path d="M 133.9152758609013 52.716195790440125 A 60 60 0 0 1 136.4327719506772 58.03899405809457" stroke="black" stroke-width="1" fill="none"/>

<line x1="52.71572875253809" y1="52.7157287525381" x2="45.644660940672615" y2="45.64466094067263" stroke="black" stroke-width="1"/>

<path d="M 52.71572875253809 52.7157287525381 A 40 40 0 0 1 58.77719067921591 47.74121550789819" stroke="black" stroke-width="1" fill="none"/>

<path d="M 48.00222842218016 142.73448850438484 A 70 70 0 0 1 42.11008368862786 139.20287286117818" stroke="black" stroke-width="1" fill="none"/>

<line x1="81.0" y1="151.0" x2="81.0" y2="161.0" stroke="black" stroke-width="1"/>

<path d="M 87.86119982306926 150.66293086705377 A 70 70 0 0 1 81.0 151.0" stroke="black" stroke-width="1" fill="none"/>

<line x1="130.49747468305833" y1="31.502525316941664" x2="137.5685424949238" y2="24.43145750507618" stroke="black" stroke-width="1"/>

<path d="M 130.49747468305833 31.502525316941664 A 70 70 0 0 1 135.11073173539157 36.59247010854479" stroke="black" stroke-width="1" fill="none"/>

<path d="M 125.40752989145518 135.1107317353916 A 70 70 0 0 1 119.88991631137216 139.20287286117815" stroke="black" stroke-width="1" fill="none"/>

<path d="M 147.98582350125463 101.31992740781236 A 70 70 0 0 1 145.67156727579007 107.78784026555628" stroke="black" stroke-width="1" fill="none"/>

<line x1="88.6536686473018" y1="62.522409349774264" x2="92.4805029709527" y2="53.283614024661404" stroke="black" stroke-width="1"/>

<path d="M 88.6536686473018 62.522409349774264 A 20 20 0 0 1 95.14213562373095 66.85786437626905" stroke="black" stroke-width="1" fill="none"/>

<path d="M 117.95518130045146 65.69266270539639 A 40 40 0 0 1 120.2314112161292 73.19638711935485" stroke="black" stroke-width="1" fill="none"/>

<line x1="67.343677458871" y1="12.345030371773873" x2="65.3927742387097" y2="2.5371775677415798" stroke="black" stroke-width="1"/>

<path d="M 60.68007259218763 14.014176498745385 A 70 70 0 0 1 67.343677458871 12.345030371773873" stroke="black" stroke-width="1" fill="none"/>

<path d="M 80.99999999999999 21.0 A 60 60 0 0 1 86.8810284197736 21.28891639966818" stroke="black" stroke-width="1" fill="none"/>

<path d="M 139.84711682419382 69.29458067903228 A 60 60 0 0 1 140.71108360033182 75.11897158022637" stroke="black" stroke-width="1" fill="none"/>

<path d="M 102.21320343559643 102.21320343559643 A 30 30 0 0 1 92.4805029709527 108.7163859753386" stroke="black" stroke-width="1" fill="none"/>

<path d="M 60.68007259218765 147.98582350125463 A 70 70 0 0 1 54.212159734443716 145.67156727579007" stroke="black" stroke-width="1" fill="none"/>

<path d="M 102.21320343559643 59.78679656440357 A 30 30 0 0 1 108.7163859753386 69.51949702904729" stroke="black" stroke-width="1" fill="none"/>

<line x1="121.0" y1="81.0" x2="131.0" y2="81.0" stroke="black" stroke-width="1"/>

<path d="M 121.0 81.0 A 40 40 0 0 1 120.23141121612922 88.80361288064513" stroke="black" stroke-width="1" fill="none"/>

<line x1="107.7878402655563" y1="16.328432724209932" x2="111.6146745892072" y2="7.089637399097072" stroke="black" stroke-width="1"/>

<path d="M 101.31992740781234 14.014176498745371 A 70 70 0 0 1 107.7878402655563 16.328432724209932" stroke="black" stroke-width="1" fill="none"/>

<line x1="81.0" y1="81.0" x2="81.0" y2="91.0" stroke="black" stroke-width="1"/>

<path d="M 114.33421398117613 130.8881767381527 A 60 60 0 0 1 109.28380420955986 133.9152758609013" stroke="black" stroke-width="1" fill="none"/>

<line x1="61.865828381745516" y1="127.19397662556435" x2="58.038994058094616" y2="136.4327719506772" stroke="black" stroke-width="1"/>

<path d="M 61.865828381745516 127.19397662556435 A 50 50 0 0 1 53.22148834901991 122.57348061512727" stroke="black" stroke-width="1" fill="none"/>

<line x1="108.7785116509801" y1="39.42651938487273" x2="114.3342139811761" y2="31.11182326184727" stroke="black" stroke-width="1"/>

<path d="M 108.7785116509801 39.42651938487273 A 50 50 0 0 1 116.35533905932738 45.644660940672615" stroke="black" stroke-width="1" fill="none"/>

<line x1="131.0" y1="81.0" x2="141.0" y2="81.0" stroke="black" stroke-width="1"/>

<path d="M 131.0 81.0 A 50 50 0 0 1 130.0392640201615 90.75451610080641" stroke="black" stroke-width="1" fill="none"/>

<path d="M 142.73448850438484 48.002228422180146 A 70 70 0 0 1 145.67156727579004 54.212159734443674" stroke="black" stroke-width="1" fill="none"/>

<path d="M 53.2836140246614 92.4805029709527 A 30 30 0 0 1 51.0 81.0" stroke="black" stroke-width="1" fill="none"/>

<path d="M 11.337069132946212 74.13880017693076 A 70 70 0 0 1 12.345030371773873 67.34367745887101" stroke="black" stroke-width="1" fill="none"/>

<path d="M 114.25878449210181 103.22280932078408 A 40 40 0 0 1 109.2842712474619 109.2842712474619" stroke="black" stroke-width="1" fill="none"/>

<line x1="19.265511495615158" y1="113.99777157781985" x2="10.446298852131605" y2="118.71173894607983" stroke="black" stroke-width="1"/>

<path d="M 19.265511495615158 113.99777157781985 A 70 70 0 0 1 16.328432724209932 107.7878402655563" stroke="black" stroke-width="1" fill="none"/>

<line x1="130.0392640201615" y1="71.24548389919356" x2="139.84711682419382" y2="69.29458067903228" stroke="black" stroke-width="1"/>

<path d="M 127.19397662556432 61.86582838174548 A 50 50 0 0 1 130.0392640201615 71.24548389919356" stroke="black" stroke-width="1" fill="none"/>

<line x1="71.24548389919357" y1="31.960735979838482" x2="69.29458067903228" y2="22.15288317580618" stroke="black" stroke-width="1"/>

<path d="M 71.24548389919357 31.960735979838482 A 50 50 0 0 1 80.99999999999999 31.0" stroke="black" stroke-width="1" fill="none"/>

<path d="M 21.28891639966818 75.11897158022637 A 60 60 0 0 1 22.152883175806174 69.2945806790323" stroke="black" stroke-width="1" fill="none"/>

<line x1="23.583579856067473" y1="98.41708063526775" x2="14.014176498745385" y2="101.31992740781237" stroke="black" stroke-width="1"/>

<path d="M 25.567228049322793 103.9610059419054 A 60 60 0 0 1 23.583579856067473 98.41708063526775" stroke="black" stroke-width="1" fill="none"/>

<path d="M 88.07106781186548 88.07106781186548 A 10 10 0 0 1 81.0 91.0" stroke="black" stroke-width="1" fill="none"/>

<path d="M 67.343677458871 12.345030371773873 A 70 70 0 0 1 74.13880017693077 11.337069132946212" stroke="black" stroke-width="1" fill="none"/>

<line x1="130.8881767381527" y1="47.665786018823866" x2="139.20287286117815" y2="42.110083688627846" stroke="black" stroke-width="1"/>

<path d="M 127.3806272017642 42.93640295018125 A 60 60 0 0 1 130.8881767381527 47.665786018823866" stroke="black" stroke-width="1" fill="none"/>

<path d="M 133.91527586090132 109.28380420955986 A 60 60 0 0 1 130.8881767381527 114.33421398117613" stroke="black" stroke-width="1" fill="none"/>

<path d="M 52.7157287525381 109.2842712474619 A 40 40 0 0 1 47.74121550789819 103.22280932078408" stroke="black" stroke-width="1" fill="none"/>

<path d="M 130.8881767381527 47.665786018823866 A 60 60 0 0 1 133.9152758609013 52.716195790440125" stroke="black" stroke-width="1" fill="none"/>

<path d="M 81.0 121.0 A 40 40 0 0 1 73.19638711935487 120.23141121612922" stroke="black" stroke-width="1" fill="none"/>

<path d="M 22.79712713882183 119.88991631137216 A 70 70 0 0 1 19.265511495615158 113.99777157781985" stroke="black" stroke-width="1" fill="none"/>

<path d="M 147.98582350125463 60.68007259218763 A 70 70 0 0 1 149.65496962822613 67.34367745887099" stroke="black" stroke-width="1" fill="none"/>

<path d="M 63.58291936473225 23.583579856067473 A 60 60 0 0 1 69.29458067903228 22.15288317580618" stroke="black" stroke-width="1" fill="none"/>

<line x1="73.3463313526982" y1="99.47759065022574" x2="69.5194970290473" y2="108.7163859753386" stroke="black" stroke-width="1"/>

<path d="M 81.0 101.0 A 20 20 0 0 1 73.3463313526982 99.47759065022574" stroke="black" stroke-width="1" fill="none"/>

<line x1="74.13880017693076" y1="150.66293086705377" x2="73.15862877363514" y2="160.61477813377576" stroke="black" stroke-width="1"/>

<path d="M 81.0 151.0 A 70 70 0 0 1 74.13880017693076 150.66293086705377" stroke="black" stroke-width="1" fill="none"/>

<path d="M 86.88102841977364 140.71108360033182 A 60 60 0 0 1 81.0 141.0" stroke="black" stroke-width="1" fill="none"/>

<path d="M 81.0 51.0 A 30 30 0 0 1 92.4805029709527 53.283614024661404" stroke="black" stroke-width="1" fill="none"/>

<line x1="38.573593128807154" y1="123.42640687119285" x2="31.50252531694168" y2="130.49747468305833" stroke="black" stroke-width="1"/>

<path d="M 38.573593128807154 123.42640687119285 A 60 60 0 0 1 34.61937279823578 119.06359704981872" stroke="black" stroke-width="1" fill="none"/>

<path d="M 150.66293086705377 74.13880017693077 A 70 70 0 0 1 151.0 80.99999999999999" stroke="black" stroke-width="1" fill="none"/>

<path d="M 125.4075298914552 26.88926826460842 A 70 70 0 0 1 130.49747468305833 31.502525316941664" stroke="black" stroke-width="1" fill="none"/>

<line x1="101.0" y1="81.0" x2="111.0" y2="80.99999999999999" stroke="black" stroke-width="1"/>

<line x1="53.2836140246614" y1="92.4805029709527" x2="44.04481869954853" y2="96.3073372946036" stroke="black" stroke-width="1"/>

<path d="M 59.78679656440357 102.21320343559643 A 30 30 0 0 1 53.2836140246614 92.4805029709527" stroke="black" stroke-width="1" fill="none"/>

<path d="M 127.19397662556435 100.13417161825448 A 50 50 0 0 1 122.57348061512727 108.77851165098011" stroke="black" stroke-width="1" fill="none"/>

<path d="M 31.111823261847277 114.33421398117613 A 60 60 0 0 1 28.084724139098704 109.28380420955988" stroke="black" stroke-width="1" fill="none"/>

<line x1="140.71108360033182" y1="86.8810284197736" x2="150.66293086705377" y2="87.8611998230692" stroke="black" stroke-width="1"/>

<path d="M 141.0 80.99999999999999 A 60 60 0 0 1 140.71108360033182 86.8810284197736" stroke="black" stroke-width="1" fill="none"/>

<path d="M 14.014176498745371 60.680072592187656 A 70 70 0 0 1 16.328432724209918 54.21215973444372" stroke="black" stroke-width="1" fill="none"/>

<path d="M 74.13880017693076 150.66293086705377 A 70 70 0 0 1 67.34367745887103 149.65496962822613" stroke="black" stroke-width="1" fill="none"/>

<path d="M 26.889268264608404 36.59247010854483 A 70 70 0 0 1 31.502525316941664 31.50252531694168" stroke="black" stroke-width="1" fill="none"/>

<path d="M 100.1341716182545 34.80602337443567 A 50 50 0 0 1 108.7785116509801 39.42651938487273" stroke="black" stroke-width="1" fill="none"/>

<path d="M 52.71619579044014 133.91527586090132 A 60 60 0 0 1 47.66578601882388 130.88817673815274" stroke="black" stroke-width="1" fill="none"/>

<path d="M 96.3073372946036 44.044818699548536 A 40 40 0 0 1 103.22280932078408 47.74121550789818" stroke="black" stroke-width="1" fill="none"/>

<line x1="47.74121550789818" y1="58.77719067921592" x2="39.42651938487273" y2="53.22148834901991" stroke="black" stroke-width="1"/>

<path d="M 44.04481869954853 65.69266270539642 A 40 40 0 0 1 47.74121550789818 58.77719067921592" stroke="black" stroke-width="1" fill="none"/>

<path d="M 41.76858878387078 88.80361288064515 A 40 40 0 0 1 41.0 81.0" stroke="black" stroke-width="1" fill="none"/>

<path d="M 130.0392640201615 71.24548389919356 A 50 50 0 0 1 131.0 80.99999999999999" stroke="black" stroke-width="1" fill="none"/>

<path d="M 12.345030371773873 94.656322541129 A 70 70 0 0 1 11.337069132946226 87.86119982306926" stroke="black" stroke-width="1" fill="none"/>

<line x1="73.92893218813452" y1="88.07106781186548" x2="66.85786437626905" y2="95.14213562373095" stroke="black" stroke-width="1"/>

<path d="M 81.0 91.0 A 10 10 0 0 1 73.92893218813452 88.07106781186548" stroke="black" stroke-width="1" fill="none"/>

<path d="M 38.57359312880714 38.573593128807154 A 60 60 0 0 1 42.93640295018125 34.6193727982358" stroke="black" stroke-width="1" fill="none"/>

<path d="M 61.86582838174549 34.806023374435675 A 50 50 0 0 1 71.24548389919357 31.960735979838482" stroke="black" stroke-width="1" fill="none"/>

<line x1="111.0" y1="80.99999999999999" x2="121.0" y2="80.99999999999999" stroke="black" stroke-width="1"/>

<path d="M 111.0 80.99999999999999 A 30 30 0 0 1 108.7163859753386 92.4805029709527" stroke="black" stroke-width="1" fill="none"/>

<path d="M 31.960735979838475 71.24548389919359 A 50 50 0 0 1 34.80602337443566 61.865828381745516" stroke="black" stroke-width="1" fill="none"/>

<path d="M 47.74121550789818 58.77719067921592 A 40 40 0 0 1 52.71572875253809 52.7157287525381" stroke="black" stroke-width="1" fill="none"/>

<path d="M 47.665786018823866 31.111823261847285 A 60 60 0 0 1 52.716195790440125 28.084724139098704" stroke="black" stroke-width="1" fill="none"/>

<line x1="108.7163859753386" y1="69.51949702904729" x2="117.95518130045146" y2="65.69266270539639" stroke="black" stroke-width="1"/>

<path d="M 108.7163859753386 69.51949702904729 A 30 30 0 0 1 111.0 80.99999999999999" stroke="black" stroke-width="1" fill="none"/>

<path d="M 107.7878402655563 16.328432724209932 A 70 70 0 0 1 113.99777157781983 19.265511495615144" stroke="black" stroke-width="1" fill="none"/>

<path d="M 23.583579856067473 98.41708063526775 A 60 60 0 0 1 22.152883175806174 92.70541932096772" stroke="black" stroke-width="1" fill="none"/>

<path d="M 42.936402950181275 127.38062720176423 A 60 60 0 0 1 38.573593128807154 123.42640687119285" stroke="black" stroke-width="1" fill="none"/>

<path d="M 71.24548389919359 130.0392640201615 A 50 50 0 0 1 61.865828381745516 127.19397662556435" stroke="black" stroke-width="1" fill="none"/>

<path d="M 69.29458067903231 139.84711682419382 A 60 60 0 0 1 63.58291936473227 138.41642014393253" stroke="black" stroke-width="1" fill="none"/>

<path d="M 103.2228093207841 114.25878449210181 A 40 40 0 0 1 96.3073372946036 117.95518130045147" stroke="black" stroke-width="1" fill="none"/>

</svg>
